<?xml version="1.0"?>
<svg id="Capa_2" data-name="Capa 2" xmlns="http://www.w3.org/2000/svg" viewBox="0 0 431.57 352.51">
  <g id="Diseño">
    <g>
      <g>
        <path d="M66.08,96.18c-.37-.44-.42-1.05-.42-1.54,0-1.41.57-2.54,1.66-3.26,1.98-1.62,3.51-3.84,4.48-6.54.99-2.76,1.5-5.82,1.5-9.1,0-2.77-.41-5.58-1.22-8.36-.81-2.79-1.81-5.22-2.97-7.21-1.69-2.42-1.07-3.93-.24-4.76.46-.46,1.11-.7,1.93-.7,1.29,0,2.36.62,3.08,1.79,3.36,4.79,5.11,11.01,5.18,18.43,0,4.05-.61,7.96-1.81,11.64-1.22,3.73-3.08,6.83-5.54,9.21-.92.92-2.01,1.4-3.23,1.4-1.13,0-1.94-.33-2.41-.99ZM70.81,216.02c-.82,0-1.46.24-1.93.7-.83.83-1.45,2.34.24,4.76,1.16,1.99,2.16,4.42,2.97,7.21.81,2.78,1.22,5.59,1.22,8.36,0,3.29-.5,6.35-1.5,9.1-.97,2.69-2.51,4.91-4.48,6.54-1.09.73-1.66,1.85-1.66,3.26,0,.49.05,1.11.42,1.54.47.66,1.29.99,2.41.99,1.22,0,2.31-.47,3.23-1.4,2.46-2.39,4.32-5.48,5.54-9.21,1.2-3.68,1.81-7.59,1.81-11.64-.07-7.42-1.82-13.63-5.18-18.43-.72-1.17-1.79-1.79-3.08-1.79ZM6.56,127.81C2.21,117.14,0,101.21,0,80.46S2.12,43.27,6.29,31.55c4.22-11.84,10.32-20.16,18.14-24.72C32.21,2.3,41.92,0,53.31,0c18.32,0,34.41,3.78,47.81,11.24,11.3,6.29,20.4,14.31,27.13,23.89.27-.92.54-1.85.84-2.75,3.06-9.31,7.68-16.86,13.75-22.45,6.13-5.65,13.54-8.52,22.01-8.52,12.02,0,21.91,4.91,29.4,14.61,7.89-8.36,17.77-12.6,29.36-12.6,8.08,0,15.09,2.66,20.84,7.91,4.84,4.42,8.66,10.2,11.42,17.19,2.53-4.33,5.46-8.21,8.79-11.58,7.24-7.31,16.33-11.01,27.02-11.01s19.73,2.16,27.05,6.42c6.81,3.96,12.36,9.04,16.51,15.12,4.23-6.6,9.96-12.09,17.07-16.32,7.61-4.53,17.11-6.83,28.25-6.83s20.69,3.7,28.35,10.99c7.59,7.22,13.33,16.72,17.06,28.23,3.72,11.45,5.6,23.8,5.6,36.72,0,11.84-1.53,23.15-4.53,33.62-3.02,10.53-7.53,19.19-13.4,25.74-5.97,6.67-13.08,10.04-21.13,10.04-5.46,0-10.47-1.69-14.91-5.03-3.99-3-7.53-7.01-10.57-11.92-3.21,4.95-7.23,9-11.96,12.06-5.23,3.38-11.22,5.09-17.81,5.09s-12.54-1.91-17.59-5.68c-4.55-3.4-8.46-7.81-11.65-13.11-3.24,5.32-7.39,9.73-12.35,13.14-5.47,3.76-11.95,5.66-19.27,5.66-6.6,0-12.49-3.28-17.5-9.75-4.85-6.26-8.62-14.62-11.22-24.84-4.65,8.19-10.42,15.33-17.31,21.27-10.25,8.84-22.74,13.32-37.1,13.32s-27.42-4.34-37.82-12.9c-8.6-7.08-15.44-15.92-20.43-26.32-.88,1.82-1.84,3.62-2.88,5.39-6.7,11.34-17.03,20.64-30.68,27.64-13.62,6.98-30.46,10.52-50.04,10.52-10.89,0-20.05-1.69-27.23-5.02-7.28-3.38-13.21-10.57-17.61-21.36ZM310.66,97.56c0-2.64-.22-4.76-.66-6.31-.4-1.43-.81-1.72-.9-1.72-.32,0-1.29,0-2.17,2.22-.71,1.78-1.07,4.27-1.07,7.42,0,4.95.74,10.17,2.2,15.56,1.72-5.74,2.59-11.5,2.59-17.17ZM369.89,103.49c0-3.24-.48-5.84-1.43-7.74-.86-1.71-1.94-2.5-3.41-2.5-.45,0-.84.85-.99,1.22-.45,1.11-.67,2.63-.67,4.5,0,2.8.41,6.2,1.22,10.1.63,3.05,1.51,6.12,2.6,9.13,1.78-5.17,2.68-10.1,2.68-14.7ZM333.43,53.92c0,2.21.24,3.97.72,5.21.54,1.4,1.13,1.4,1.32,1.4.45,0,.86-.47,1.22-1.4.48-1.25.72-2.93.72-5.01,0-3.53-.66-7.46-1.97-11.73-1.34,4.16-2.02,8.02-2.02,11.53ZM261.4,60.95c0,14.2-2.63,28.28-7.83,41.85-.51,1.33-1.07,2.63-1.63,3.92.37,2.06.79,4.1,1.26,6.09,2.2,9.28,5.4,16.87,9.49,22.57,3.97,5.52,8.58,8.32,13.7,8.32,12.58,0,21.85-6.48,28.33-19.82-3.33-7.79-5.01-15.6-5.01-23.2,0-4.96.77-9.07,2.3-12.21,1.64-3.38,4.03-5.1,7.11-5.1,2.39,0,4.26,1.71,5.55,5.08,1.17,3.06,1.77,6.97,1.77,11.63,0,7.93-1.62,16-4.82,24,2.78,5.82,6.33,10.59,10.56,14.19,4.25,3.61,9.32,5.44,15.08,5.44s11.01-1.66,15.56-4.93c4.47-3.22,8.13-7.45,10.9-12.58-1.88-4.13-3.36-8.43-4.38-12.81-1.06-4.54-1.6-8.82-1.6-12.7s.56-7.18,1.67-9.58c1.53-3.32,3.92-4.01,5.66-4.01,3.57,0,6.35,1.66,8.27,4.93,1.82,3.1,2.74,7.2,2.74,12.18,0,7.08-1.81,14.48-5.39,22,2.77,5.16,5.99,9.37,9.55,12.53,3.57,3.17,7.7,4.77,12.28,4.77,6.48,0,12.26-2.92,17.19-8.69,5.03-5.89,8.95-13.76,11.64-23.39,2.71-9.69,4.08-20.17,4.08-31.15,0-12.04-1.67-23.54-4.97-34.19-3.28-10.58-8.34-19.26-15.04-25.82-6.63-6.48-14.98-9.76-24.83-9.76-10.49,0-19.29,2.26-26.14,6.72-6.72,4.38-11.98,10-15.63,16.73,2.91,6.39,4.39,12.77,4.39,18.97,0,3.97-.66,7.25-1.96,9.73-1.42,2.7-3.35,4.07-5.75,4.07-2.66,0-4.74-1.4-6.19-4.17-1.34-2.55-2.02-5.79-2.02-9.63,0-6.14,1.54-12.52,4.59-18.97-3.59-6.31-8.7-11.56-15.2-15.61-6.64-4.13-15.04-6.23-24.97-6.23-9.25,0-17.07,3.33-23.24,9.88-3.92,4.17-7.23,9.16-9.91,14.93,1.89,7.42,2.87,15.47,2.87,24.04ZM254.43,48.1c-3.03,10.66-4.56,22.26-4.56,34.48,0,3.69.14,7.31.41,10.86,3.28-10.74,4.96-21.74,4.96-32.78,0-4.4-.29-8.57-.81-12.56ZM186.42,45.15c-1.76,7.5-2.65,15.15-2.65,22.74,0,8.23.98,15.29,2.93,20.99,1.82,5.35,4.03,8.06,6.56,8.06,2.66,0,4.92-2.74,6.71-8.15,1.91-5.77,2.88-12.93,2.88-21.3,0-7.46-.83-14.98-2.45-22.36-1.48-6.71-3.67-12.8-6.51-18.11-3.35,5.2-5.86,11.29-7.46,18.13ZM132.75,42.39c6.28,11.54,9.47,23.86,9.47,36.67,0,8.25-1.33,16.2-3.96,23.77,4.64,11.68,11.58,21.45,20.69,29.04,9.43,7.85,20.97,11.83,34.31,11.83s24.38-4.11,33.65-12.22c7.87-6.88,14.15-15.52,18.76-25.69-1.3-7.6-1.98-15.53-1.98-23.72,0-12.97,1.71-25.37,5.07-36.84.92-3.15,2.01-6.14,3.22-8.98-1.33-4.44-3.05-8.53-5.18-12.25-5.57-9.7-13.15-14.42-23.2-14.42s-19.13,3.98-25.57,11.83c3.55,5.95,6.28,12.85,8.12,20.49,1.89,7.89,2.85,15.95,2.85,23.97,0,10.27-1.38,19.05-4.11,26.11-2.85,7.37-6.76,11.11-11.65,11.11s-8.71-3.65-11.55-10.85c-2.72-6.89-4.1-15.42-4.1-25.36,0-8.3,1.06-16.64,3.16-24.79,2.04-7.93,5.21-14.98,9.42-20.96-6.51-9-15.03-13.56-25.33-13.56-7.13,0-13.32,2.46-18.4,7.31-5.15,4.92-9.1,11.66-11.75,20.03-.76,2.41-1.41,4.91-1.95,7.47ZM130.68,62.76c0,10.08,1.36,19.99,4.04,29.58.88-4.32,1.33-8.76,1.33-13.29,0-8.79-1.68-17.34-4.95-25.57-.27,3.02-.42,6.11-.42,9.28ZM6.17,80.46c0,19.69,1.87,34.64,5.56,44.44,3.64,9.65,8.59,15.97,14.7,18.79,6.23,2.87,14.63,4.33,24.96,4.33,18.45,0,34.21-3.26,46.85-9.69,12.6-6.42,22.16-14.95,28.4-25.36,1.99-3.33,3.64-6.76,5-10.28-4.72-12.81-7.13-26.23-7.13-39.92,0-6.71.59-13.16,1.74-19.28-6.44-11.08-15.97-20.18-28.34-27.04-12.43-6.89-27.43-10.38-44.6-10.38-11.39,0-20.61,2.47-27.41,7.35-6.78,4.87-11.81,12.77-14.95,23.49-3.18,10.85-4.79,25.5-4.79,43.55ZM425.97,204.87c3.72,11.45,5.6,23.8,5.6,36.72,0,11.84-1.53,23.15-4.53,33.62-3.02,10.53-7.53,19.19-13.4,25.74-5.96,6.67-13.08,10.04-21.13,10.04-5.46,0-10.47-1.69-14.91-5.03-3.98-3-7.53-7.01-10.57-11.92-3.21,4.95-7.23,9-11.96,12.07-5.23,3.38-11.22,5.09-17.81,5.09s-12.54-1.91-17.59-5.68c-4.55-3.4-8.46-7.8-11.65-13.11-3.24,5.32-7.39,9.73-12.35,13.13-5.47,3.76-11.95,5.66-19.27,5.66-6.6,0-12.49-3.28-17.5-9.75-4.85-6.27-8.62-14.63-11.22-24.84-4.65,8.19-10.42,15.33-17.31,21.27-10.25,8.84-22.74,13.32-37.1,13.32s-27.42-4.34-37.82-12.9c-8.6-7.08-15.43-15.92-20.43-26.32-.88,1.82-1.84,3.62-2.88,5.39-6.7,11.34-17.03,20.64-30.68,27.64-13.63,6.98-30.46,10.52-50.04,10.52-10.89,0-20.05-1.69-27.23-5.02-7.28-3.38-13.21-10.57-17.61-21.36-4.35-10.67-6.56-26.59-6.56-47.34s2.12-37.19,6.29-48.91c4.22-11.84,10.32-20.16,18.14-24.72,7.77-4.53,17.48-6.83,28.87-6.83,18.32,0,34.41,3.78,47.81,11.24,11.3,6.29,20.4,14.31,27.13,23.89.27-.92.54-1.85.84-2.75,3.06-9.31,7.68-16.86,13.75-22.45,6.13-5.65,13.54-8.52,22.01-8.52,12.02,0,21.91,4.91,29.4,14.61,7.89-8.36,17.77-12.6,29.36-12.6,8.08,0,15.09,2.66,20.84,7.91,4.84,4.42,8.66,10.2,11.42,17.19,2.53-4.33,5.46-8.21,8.79-11.58,7.24-7.31,16.33-11.01,27.02-11.01s19.73,2.16,27.05,6.42c6.81,3.96,12.36,9.05,16.51,15.12,4.23-6.6,9.96-12.09,17.07-16.32,7.61-4.53,17.11-6.83,28.25-6.83s20.69,3.7,28.35,10.99c7.59,7.22,13.33,16.72,17.06,28.23ZM333.43,215.24c0,2.21.24,3.97.72,5.21.54,1.41,1.13,1.41,1.32,1.41.45,0,.86-.47,1.22-1.41.48-1.25.72-2.93.72-5.01,0-3.53-.66-7.46-1.97-11.73-1.34,4.15-2.02,8.02-2.02,11.53ZM186.42,206.47c-1.76,7.5-2.65,15.15-2.65,22.74,0,8.23.98,15.29,2.93,20.99,1.82,5.35,4.03,8.06,6.56,8.06,2.66,0,4.92-2.74,6.71-8.15,1.91-5.77,2.88-12.94,2.88-21.3,0-7.46-.83-14.98-2.45-22.35-1.48-6.71-3.67-12.8-6.51-18.12-3.35,5.21-5.86,11.3-7.46,18.13ZM131.65,264.01c-4.72-12.81-7.13-26.23-7.13-39.92,0-6.71.59-13.16,1.74-19.28-6.45-11.08-15.98-20.18-28.34-27.04-12.43-6.89-27.43-10.38-44.6-10.38-11.39,0-20.61,2.47-27.41,7.35-6.78,4.87-11.81,12.77-14.95,23.49-3.18,10.85-4.79,25.5-4.79,43.56,0,19.69,1.87,34.64,5.56,44.44,3.64,9.65,8.59,15.97,14.7,18.79,6.23,2.87,14.63,4.33,24.96,4.33,18.45,0,34.22-3.26,46.85-9.69,12.6-6.42,22.16-14.95,28.4-25.36,1.99-3.33,3.64-6.76,5-10.28ZM136.05,240.38c0-8.79-1.68-17.34-4.95-25.57-.27,3.02-.42,6.11-.42,9.28,0,10.08,1.36,19.99,4.04,29.58.88-4.32,1.33-8.76,1.33-13.29ZM248.76,206.55c.92-3.15,2.01-6.14,3.22-8.98-1.33-4.44-3.05-8.53-5.18-12.25-5.57-9.7-13.15-14.42-23.2-14.42s-19.13,3.98-25.57,11.83c3.55,5.96,6.28,12.84,8.12,20.49,1.89,7.89,2.85,15.95,2.85,23.97,0,10.27-1.38,19.05-4.11,26.11-2.85,7.37-6.77,11.11-11.65,11.11s-8.71-3.65-11.55-10.85c-2.72-6.89-4.1-15.42-4.1-25.36,0-8.3,1.06-16.64,3.16-24.79,2.04-7.93,5.21-14.98,9.42-20.96-6.51-9-15.03-13.56-25.33-13.56-7.13,0-13.32,2.46-18.4,7.31-5.15,4.92-9.1,11.66-11.75,20.03-.76,2.41-1.41,4.91-1.95,7.47,6.28,11.54,9.47,23.86,9.47,36.67,0,8.25-1.33,16.2-3.96,23.77,4.64,11.68,11.58,21.45,20.69,29.04,9.43,7.85,20.97,11.83,34.31,11.83s24.38-4.11,33.65-12.22c7.87-6.88,14.15-15.51,18.76-25.69-1.3-7.6-1.98-15.53-1.98-23.72,0-12.97,1.71-25.37,5.07-36.84ZM250.27,254.75c3.28-10.74,4.96-21.74,4.96-32.78,0-4.4-.29-8.57-.81-12.56-3.03,10.66-4.56,22.26-4.56,34.48,0,3.69.14,7.31.41,10.86ZM310.66,258.88c0-2.64-.22-4.76-.66-6.31-.4-1.43-.81-1.72-.9-1.72-.32,0-1.29,0-2.17,2.22-.71,1.78-1.07,4.27-1.07,7.42,0,4.95.74,10.17,2.2,15.56,1.72-5.74,2.59-11.5,2.59-17.17ZM369.89,264.81c0-3.24-.48-5.84-1.43-7.74-.86-1.71-1.94-2.5-3.41-2.5-.45,0-.84.85-.99,1.22-.45,1.11-.67,2.63-.67,4.5,0,2.8.41,6.2,1.22,10.1.63,3.05,1.51,6.12,2.6,9.13,1.78-5.17,2.68-10.1,2.68-14.7ZM425.4,241.58c0-12.04-1.67-23.54-4.97-34.19-3.28-10.58-8.34-19.26-15.04-25.82-6.63-6.48-14.98-9.76-24.83-9.76-10.49,0-19.29,2.26-26.14,6.72-6.73,4.38-11.98,10-15.63,16.72,2.91,6.39,4.39,12.77,4.39,18.97,0,3.97-.66,7.24-1.96,9.73-1.42,2.7-3.35,4.07-5.75,4.07-2.66,0-4.74-1.4-6.19-4.17-1.34-2.55-2.02-5.79-2.02-9.63,0-6.14,1.54-12.52,4.59-18.97-3.59-6.31-8.7-11.56-15.2-15.61-6.64-4.13-15.04-6.23-24.97-6.23-9.25,0-17.07,3.33-23.24,9.88-3.92,4.17-7.23,9.16-9.91,14.93,1.89,7.42,2.87,15.47,2.87,24.04,0,14.2-2.63,28.28-7.83,41.85-.51,1.33-1.07,2.63-1.63,3.92.37,2.06.79,4.1,1.26,6.09,2.2,9.28,5.4,16.87,9.49,22.57,3.97,5.52,8.58,8.32,13.7,8.32,12.58,0,21.85-6.48,28.33-19.82-3.33-7.79-5.01-15.6-5.01-23.21,0-4.96.77-9.07,2.3-12.21,1.64-3.38,4.03-5.1,7.11-5.1,2.39,0,4.26,1.71,5.55,5.08,1.17,3.05,1.77,6.97,1.77,11.63,0,7.93-1.62,16-4.82,24,2.78,5.82,6.33,10.59,10.56,14.19,4.25,3.61,9.32,5.44,15.08,5.44s11.01-1.66,15.56-4.94c4.47-3.22,8.13-7.44,10.9-12.58-1.89-4.13-3.36-8.43-4.38-12.81-1.06-4.54-1.6-8.82-1.6-12.7s.56-7.18,1.67-9.58c1.53-3.32,3.92-4.01,5.66-4.01,3.57,0,6.35,1.66,8.27,4.93,1.82,3.1,2.74,7.2,2.74,12.18,0,7.08-1.81,14.48-5.39,22,2.77,5.16,5.99,9.37,9.55,12.53,3.57,3.17,7.7,4.77,12.28,4.77,6.48,0,12.26-2.92,17.19-8.69,5.03-5.89,8.95-13.76,11.64-23.39,2.71-9.68,4.08-20.16,4.08-31.15ZM415.99,166.95v-6.97h-2.37v-1.71h6.82v1.71h-2.37v6.97h-2.09ZM421.71,166.95v-8.69h2.16l2.24,4.95h.07l2.24-4.95h2.14v8.69h-1.88v-5.42h-.1l-1.82,4.11h-1.23l-1.85-4.11h-.1v5.42h-1.86Z" style="fill: #d61021;"></path>
        <g>
          <path d="M17.79,335.71c1.71,0,3.12.33,4.21.98,1.1.66,1.91,1.59,2.44,2.81.53,1.22.79,2.67.79,4.37s-.27,3.18-.8,4.42c-.53,1.25-1.35,2.2-2.45,2.87-1.1.67-2.49,1-4.19,1h-6.45v-16.46h6.45ZM15.31,349.02h1.86c.7,0,1.3-.1,1.81-.31.51-.21.92-.52,1.24-.94.32-.42.56-.94.72-1.58s.23-1.37.23-2.22c0-1.13-.14-2.07-.42-2.83-.28-.76-.71-1.34-1.3-1.72-.59-.38-1.35-.57-2.28-.57h-1.86v10.18Z" style="fill: #d61021;"></path>
          <path d="M39.54,348.37c.55-.53.82-1.31.82-2.35v-10.31h3.95v10.77c0,1.21-.28,2.26-.84,3.16-.56.9-1.36,1.6-2.39,2.09-1.03.49-2.25.74-3.66.74s-2.63-.25-3.66-.74c-1.03-.49-1.83-1.19-2.39-2.09s-.84-1.95-.84-3.16v-10.77h3.95v10.31c0,1.05.27,1.84.81,2.36.54.52,1.25.78,2.12.78s1.57-.26,2.12-.8Z" style="fill: #d61021;"></path>
          <path d="M50.46,352.17v-16.46h4.09l4.23,9.38h.13l4.23-9.38h4.06v16.46h-3.57v-10.26h-.19l-3.46,7.79h-2.33l-3.5-7.79h-.18v10.26h-3.52Z" style="fill: #d61021;"></path>
          <path d="M83.64,336.49c.85.52,1.49,1.21,1.92,2.07.43.86.65,1.82.65,2.85s-.22,2-.66,2.85c-.44.86-1.09,1.54-1.95,2.04-.86.5-1.93.75-3.2.75h-2.94v5.11h-3.95v-16.46h6.94c1.27,0,2.33.26,3.18.78ZM81.49,339.44c-.48-.46-1.12-.69-1.94-.69h-2.09v5.33h2.09c.55,0,1.02-.1,1.42-.31.4-.21.7-.51.92-.91.21-.4.32-.88.32-1.44,0-.86-.24-1.52-.71-1.98Z" style="fill: #d61021;"></path>
          <path d="M101.97,352.17h-10.57v-16.46h3.97v13.15h6.61v3.3Z" style="fill: #d61021;"></path>
          <path d="M107.06,352.17v-16.46h3.97v16.46h-3.97Z" style="fill: #d61021;"></path>
          <path d="M117.32,352.17v-16.46h3.13l6.6,9.78h.16v-9.78h3.69v16.46h-3.11l-6.62-9.88h-.16v9.88h-3.69Z" style="fill: #d61021;"></path>
          <path d="M146.71,340.93c-.06-.32-.16-.62-.31-.89-.15-.27-.35-.51-.6-.72-.25-.21-.54-.37-.87-.48-.33-.11-.71-.17-1.13-.17-1.05,0-1.86.37-2.42,1.12-.56.74-.84,1.79-.84,3.15v1.93c0,.83.11,1.57.33,2.23.22.66.58,1.18,1.07,1.56.49.38,1.15.57,1.96.57.67,0,1.22-.12,1.66-.36.44-.24.77-.56.99-.95.22-.39.32-.82.32-1.28v-.72h-2.87v-2.78h6.61v3.21c0,.8-.13,1.57-.4,2.31-.26.73-.67,1.39-1.22,1.96-.55.58-1.25,1.03-2.11,1.36-.86.33-1.87.5-3.06.5-1.26,0-2.35-.19-3.27-.58-.92-.39-1.67-.92-2.27-1.61-.59-.69-1.03-1.49-1.32-2.41-.29-.92-.43-1.92-.43-3v-1.98c0-1.47.28-2.77.84-3.89.56-1.12,1.39-2,2.47-2.63,1.08-.64,2.41-.95,3.98-.95,1.08,0,2.03.15,2.85.45.82.3,1.51.71,2.07,1.22.56.52,1,1.11,1.3,1.77.3.66.48,1.35.52,2.07h-3.86Z" style="fill: #d61021;"></path>
          <path d="M159.12,347.47c.03.26.12.52.27.76.15.24.35.45.61.63s.56.32.92.43.75.16,1.21.16c.62,0,1.13-.08,1.52-.25.4-.16.69-.39.89-.67.19-.29.29-.61.29-.97,0-.51-.2-.91-.61-1.18-.41-.27-1.02-.49-1.82-.66l-2.33-.51c-.88-.18-1.64-.46-2.3-.84s-1.16-.89-1.53-1.53c-.37-.63-.55-1.4-.55-2.31,0-1.05.27-1.96.81-2.73s1.29-1.36,2.25-1.77c.96-.41,2.07-.62,3.35-.62,1.37,0,2.53.23,3.45.68.93.45,1.63,1.05,2.12,1.79s.74,1.54.77,2.39h-3.67c-.05-.33-.18-.64-.39-.92s-.51-.51-.89-.69-.85-.27-1.41-.27c-.8,0-1.4.18-1.83.53-.42.35-.63.79-.63,1.32,0,.44.19.8.58,1.07.39.27.93.48,1.62.61l2.39.49c.84.16,1.6.42,2.28.78.68.36,1.22.86,1.62,1.49.4.64.6,1.46.6,2.46s-.26,1.97-.77,2.77c-.51.8-1.27,1.43-2.27,1.87-1,.45-2.24.68-3.72.68-1.16,0-2.15-.14-2.98-.41-.83-.27-1.51-.65-2.04-1.12-.53-.47-.92-1.01-1.18-1.61-.26-.6-.4-1.22-.42-1.86h3.77Z" style="fill: #d61021;"></path>
          <path d="M193.05,351.92c-.11-.12-.23-.24-.37-.38-.13-.14-.25-.27-.36-.39-.11-.12-.19-.2-.23-.25-.56.5-1.28.89-2.14,1.17-.87.29-1.82.43-2.86.43-1.19,0-2.22-.19-3.09-.57s-1.54-.91-2.01-1.6c-.48-.69-.71-1.5-.71-2.44,0-.69.13-1.3.39-1.83.26-.53.61-.99,1.05-1.4.44-.41.95-.77,1.53-1.09.13-.07.26-.14.39-.21.13-.07.27-.13.4-.2-.6-.62-1.09-1.22-1.47-1.8-.38-.58-.57-1.23-.57-1.94,0-.77.22-1.45.65-2.03.43-.58,1.02-1.03,1.74-1.35.73-.32,1.53-.48,2.42-.48.79,0,1.54.14,2.25.42.72.28,1.3.7,1.76,1.25.46.56.69,1.26.69,2.1,0,.71-.16,1.33-.48,1.86-.32.53-.72.99-1.22,1.39-.5.4-1.02.74-1.57,1.04.12.13.31.34.57.62.26.29.54.59.84.92.3.33.58.63.84.92s.45.49.57.62c.21-.34.35-.76.42-1.25.07-.49.1-1,.1-1.54v-.98h3.04v1.22c0,.88-.11,1.74-.34,2.58s-.58,1.57-1.06,2.19l3.11,3.23h-4.06s-.12-.13-.23-.25ZM185.16,346.22c-.31.37-.46.84-.46,1.39,0,.48.12.89.37,1.24.25.34.58.6,1,.77.42.17.88.26,1.38.26s1-.09,1.51-.25c.51-.17.92-.43,1.23-.77l-3.5-3.79c-.07.03-.14.07-.21.1-.07.04-.14.07-.21.12-.43.25-.81.56-1.11.93ZM188.95,340.98c.35-.36.53-.81.53-1.34s-.16-.93-.48-1.24-.71-.45-1.19-.45-.9.16-1.22.47c-.32.31-.48.72-.48,1.21,0,.36.11.71.32,1.05.22.34.59.77,1.12,1.28.57-.3,1.03-.63,1.39-.99Z" style="fill: #d61021;"></path>
          <path d="M216.26,335.71c1.71,0,3.12.33,4.21.98,1.1.66,1.91,1.59,2.44,2.81.53,1.22.79,2.67.79,4.37s-.27,3.18-.8,4.42c-.53,1.25-1.35,2.2-2.45,2.87s-2.49,1-4.19,1h-6.45v-16.46h6.45ZM213.78,349.02h1.86c.7,0,1.3-.1,1.81-.31.51-.21.92-.52,1.24-.94.32-.42.56-.94.72-1.58.16-.64.23-1.37.23-2.22,0-1.13-.14-2.07-.42-2.83-.28-.76-.71-1.34-1.3-1.72-.59-.38-1.35-.57-2.28-.57h-1.86v10.18Z" style="fill: #d61021;"></path>
          <path d="M240.21,352.17h-11.03v-16.46h11.03v3.15h-7.11v3.58h6.68v2.89h-6.68v3.69h7.11v3.15Z" style="fill: #d61021;"></path>
          <path d="M248.95,347.47c.03.26.12.52.27.76.15.24.35.45.61.63s.56.32.91.43c.35.1.76.16,1.21.16.62,0,1.13-.08,1.52-.25.4-.16.69-.39.89-.67s.29-.61.29-.97c0-.51-.2-.91-.61-1.18-.41-.27-1.02-.49-1.82-.66l-2.33-.51c-.88-.18-1.64-.46-2.3-.84-.66-.39-1.17-.89-1.53-1.53-.37-.63-.55-1.4-.55-2.31,0-1.05.27-1.96.81-2.73.54-.77,1.29-1.36,2.25-1.77.96-.41,2.08-.62,3.34-.62,1.38,0,2.53.23,3.46.68.93.45,1.64,1.05,2.12,1.79s.74,1.54.77,2.39h-3.66c-.05-.33-.18-.64-.4-.92-.21-.28-.51-.51-.89-.69s-.85-.27-1.41-.27c-.79,0-1.41.18-1.83.53-.42.35-.63.79-.63,1.32,0,.44.2.8.59,1.07.39.27.93.48,1.62.61l2.39.49c.84.16,1.6.42,2.28.78.68.36,1.22.86,1.62,1.49.4.64.6,1.46.6,2.46s-.26,1.97-.77,2.77c-.52.8-1.27,1.43-2.27,1.87-1,.45-2.24.68-3.72.68-1.16,0-2.15-.14-2.98-.41-.83-.27-1.51-.65-2.04-1.12-.53-.47-.92-1.01-1.18-1.61-.26-.6-.4-1.22-.42-1.86h3.77Z" style="fill: #d61021;"></path>
          <path d="M277.21,348.93c-.57,1.13-1.41,2.01-2.49,2.62-1.09.61-2.41.92-3.96.92s-2.86-.31-3.96-.92c-1.1-.61-1.93-1.49-2.51-2.62-.58-1.13-.86-2.47-.86-4v-1.92c0-1.56.29-2.91.86-4.04.57-1.14,1.41-2.01,2.51-2.62,1.1-.61,2.42-.92,3.96-.92s2.87.31,3.96.93c1.09.62,1.92,1.49,2.49,2.62.58,1.13.86,2.47.86,4.03v1.92c0,1.54-.29,2.87-.86,4ZM273.62,340.57c-.28-.64-.66-1.12-1.15-1.44-.49-.32-1.06-.48-1.71-.48s-1.23.16-1.72.48c-.49.32-.88.8-1.15,1.44-.28.64-.42,1.44-.42,2.39v1.98c0,.95.14,1.74.42,2.39.28.64.66,1.13,1.15,1.45.49.32,1.06.48,1.72.48s1.22-.16,1.71-.48c.49-.32.88-.81,1.15-1.45.28-.64.42-1.44.42-2.39v-1.98c0-.96-.14-1.75-.42-2.39Z" style="fill: #d61021;"></path>
          <path d="M283.72,335.71h7.28c1.52,0,2.74.36,3.67,1.07.92.71,1.39,1.7,1.39,2.97,0,.7-.14,1.3-.41,1.8-.27.5-.63.9-1.07,1.19-.44.3-.93.5-1.46.6v.18c.61.04,1.2.21,1.77.51.57.3,1.03.74,1.4,1.31.37.58.55,1.29.55,2.15,0,.99-.25,1.83-.76,2.53-.51.7-1.19,1.22-2.06,1.59-.86.37-1.83.55-2.9.55h-7.4v-16.46ZM287.64,342.41h1.93c.61,0,1.11-.08,1.49-.25.39-.16.67-.39.85-.69.18-.29.27-.64.27-1.03,0-.59-.19-1.05-.57-1.4-.38-.35-.92-.52-1.61-.52h-2.36v3.88ZM287.64,349.36h2.14c1.08,0,1.85-.2,2.33-.59.47-.39.71-.92.71-1.6,0-.45-.1-.84-.3-1.18-.2-.33-.49-.59-.88-.77-.39-.18-.88-.27-1.46-.27h-2.54v4.4Z" style="fill: #d61021;"></path>
          <path d="M313.28,352.17h-11.03v-16.46h11.03v3.15h-7.11v3.58h6.68v2.89h-6.68v3.69h7.11v3.15Z" style="fill: #d61021;"></path>
          <path d="M325.59,335.71c1.71,0,3.12.33,4.21.98,1.1.66,1.91,1.59,2.44,2.81.53,1.22.79,2.67.79,4.37s-.27,3.18-.8,4.42c-.54,1.25-1.35,2.2-2.45,2.87s-2.49,1-4.19,1h-6.45v-16.46h6.45ZM323.1,349.02h1.86c.7,0,1.3-.1,1.81-.31.51-.21.92-.52,1.24-.94.32-.42.56-.94.72-1.58s.23-1.37.23-2.22c0-1.13-.14-2.07-.42-2.83-.28-.76-.71-1.34-1.3-1.72-.59-.38-1.35-.57-2.28-.57h-1.86v10.18Z" style="fill: #d61021;"></path>
          <path d="M338.51,352.17v-16.46h3.97v16.46h-3.97Z" style="fill: #d61021;"></path>
          <path d="M359.8,352.17h-11.03v-16.46h11.03v3.15h-7.11v3.58h6.68v2.89h-6.68v3.69h7.11v3.15Z" style="fill: #d61021;"></path>
          <path d="M365.65,352.17v-16.46h3.13l6.6,9.78h.16v-9.78h3.69v16.46h-3.11l-6.62-9.88h-.16v9.88h-3.69Z" style="fill: #d61021;"></path>
          <path d="M388.91,344.89c0,.92.12,1.71.37,2.35.24.64.6,1.13,1.07,1.46.47.33,1.03.49,1.69.49.58,0,1.08-.12,1.5-.37.42-.25.75-.58.98-1.01.23-.42.37-.91.4-1.46h3.78v.47c-.03,1.13-.33,2.11-.91,2.96-.58.85-1.37,1.51-2.37,1.98-1,.47-2.13.71-3.4.71-1.54,0-2.84-.31-3.9-.93s-1.87-1.5-2.42-2.63c-.55-1.13-.83-2.48-.83-4.04v-1.83c0-1.57.28-2.92.83-4.06.55-1.14,1.36-2.02,2.43-2.64,1.07-.62,2.36-.93,3.89-.93.95,0,1.83.13,2.64.4.81.27,1.5.66,2.1,1.16.59.51,1.06,1.11,1.41,1.81.34.7.52,1.49.54,2.36v.46h-3.78c-.03-.56-.17-1.06-.4-1.51-.24-.44-.57-.79-.98-1.04s-.92-.38-1.49-.38c-.66,0-1.22.17-1.69.51s-.82.83-1.07,1.48-.37,1.43-.37,2.36v1.84Z" style="fill: #d61021;"></path>
          <path d="M404.28,352.17v-16.46h3.97v16.46h-3.97Z" style="fill: #d61021;"></path>
          <path d="M413.04,352.17l5.31-16.46h4.82l5.28,16.46h-4.21l-1.07-3.8h-5.1l-1.07,3.8h-3.95ZM420.55,339.26l-1.75,6.26h3.66l-1.73-6.26h-.18Z" style="fill: #d61021;"></path>
        </g>
      </g>
      <g>
        <path d="M66.08,96.18c-.37-.44-.42-1.05-.42-1.54,0-1.41.57-2.54,1.66-3.26,1.98-1.62,3.51-3.84,4.48-6.54.99-2.76,1.5-5.82,1.5-9.1,0-2.77-.41-5.58-1.22-8.36-.81-2.79-1.81-5.22-2.97-7.21-1.69-2.42-1.07-3.93-.24-4.76.46-.46,1.11-.7,1.93-.7,1.29,0,2.36.62,3.08,1.79,3.36,4.79,5.11,11.01,5.18,18.43,0,4.05-.61,7.96-1.81,11.64-1.22,3.73-3.08,6.83-5.54,9.21-.92.92-2.01,1.4-3.23,1.4-1.13,0-1.94-.33-2.41-.99ZM70.81,216.02c-.82,0-1.46.24-1.93.7-.83.83-1.45,2.34.24,4.76,1.16,1.99,2.16,4.42,2.97,7.21.81,2.78,1.22,5.59,1.22,8.36,0,3.29-.5,6.35-1.5,9.1-.97,2.69-2.51,4.91-4.48,6.54-1.09.73-1.66,1.85-1.66,3.26,0,.49.05,1.11.42,1.54.47.66,1.29.99,2.41.99,1.22,0,2.31-.47,3.23-1.4,2.46-2.39,4.32-5.48,5.54-9.21,1.2-3.68,1.81-7.59,1.81-11.64-.07-7.42-1.82-13.63-5.18-18.43-.72-1.17-1.79-1.79-3.08-1.79ZM6.56,127.81C2.21,117.14,0,101.21,0,80.46S2.12,43.27,6.29,31.55c4.22-11.84,10.32-20.16,18.14-24.72C32.21,2.3,41.92,0,53.31,0c18.32,0,34.41,3.78,47.81,11.24,11.3,6.29,20.4,14.31,27.13,23.89.27-.92.54-1.85.84-2.75,3.06-9.31,7.68-16.86,13.75-22.45,6.13-5.65,13.54-8.52,22.01-8.52,12.02,0,21.91,4.91,29.4,14.61,7.89-8.36,17.77-12.6,29.36-12.6,8.08,0,15.09,2.66,20.84,7.91,4.84,4.42,8.66,10.2,11.42,17.19,2.53-4.33,5.46-8.21,8.79-11.58,7.24-7.31,16.33-11.01,27.02-11.01s19.73,2.16,27.05,6.42c6.81,3.96,12.36,9.04,16.51,15.12,4.23-6.6,9.96-12.09,17.07-16.32,7.61-4.53,17.11-6.83,28.25-6.83s20.69,3.7,28.35,10.99c7.59,7.22,13.33,16.72,17.06,28.23,3.72,11.45,5.6,23.8,5.6,36.72,0,11.84-1.53,23.15-4.53,33.62-3.02,10.53-7.53,19.19-13.4,25.74-5.97,6.67-13.08,10.04-21.13,10.04-5.46,0-10.47-1.69-14.91-5.03-3.99-3-7.53-7.01-10.57-11.92-3.21,4.95-7.23,9-11.96,12.06-5.23,3.38-11.22,5.09-17.81,5.09s-12.54-1.91-17.59-5.68c-4.55-3.4-8.46-7.81-11.65-13.11-3.24,5.32-7.39,9.73-12.35,13.14-5.47,3.76-11.95,5.66-19.27,5.66-6.6,0-12.49-3.28-17.5-9.75-4.85-6.26-8.62-14.62-11.22-24.84-4.65,8.19-10.42,15.33-17.31,21.27-10.25,8.84-22.74,13.32-37.1,13.32s-27.42-4.34-37.82-12.9c-8.6-7.08-15.44-15.92-20.43-26.32-.88,1.82-1.84,3.62-2.88,5.39-6.7,11.34-17.03,20.64-30.68,27.64-13.62,6.98-30.46,10.52-50.04,10.52-10.89,0-20.05-1.69-27.23-5.02-7.28-3.38-13.21-10.57-17.61-21.36ZM310.66,97.56c0-2.64-.22-4.76-.66-6.31-.4-1.43-.81-1.72-.9-1.72-.32,0-1.29,0-2.17,2.22-.71,1.78-1.07,4.27-1.07,7.42,0,4.95.74,10.17,2.2,15.56,1.72-5.74,2.59-11.5,2.59-17.17ZM369.89,103.49c0-3.24-.48-5.84-1.43-7.74-.86-1.71-1.94-2.5-3.41-2.5-.45,0-.84.85-.99,1.22-.45,1.11-.67,2.63-.67,4.5,0,2.8.41,6.2,1.22,10.1.63,3.05,1.51,6.12,2.6,9.13,1.78-5.17,2.68-10.1,2.68-14.7ZM333.43,53.92c0,2.21.24,3.97.72,5.21.54,1.4,1.13,1.4,1.32,1.4.45,0,.86-.47,1.22-1.4.48-1.25.72-2.93.72-5.01,0-3.53-.66-7.46-1.97-11.73-1.34,4.16-2.02,8.02-2.02,11.53ZM261.4,60.95c0,14.2-2.63,28.28-7.83,41.85-.51,1.33-1.07,2.63-1.63,3.92.37,2.06.79,4.1,1.26,6.09,2.2,9.28,5.4,16.87,9.49,22.57,3.97,5.52,8.58,8.32,13.7,8.32,12.58,0,21.85-6.48,28.33-19.82-3.33-7.79-5.01-15.6-5.01-23.2,0-4.96.77-9.07,2.3-12.21,1.64-3.38,4.03-5.1,7.11-5.1,2.39,0,4.26,1.71,5.55,5.08,1.17,3.06,1.77,6.97,1.77,11.63,0,7.93-1.62,16-4.82,24,2.78,5.82,6.33,10.59,10.56,14.19,4.25,3.61,9.32,5.44,15.08,5.44s11.01-1.66,15.56-4.93c4.47-3.22,8.13-7.45,10.9-12.58-1.88-4.13-3.36-8.43-4.38-12.81-1.06-4.54-1.6-8.82-1.6-12.7s.56-7.18,1.67-9.58c1.53-3.32,3.92-4.01,5.66-4.01,3.57,0,6.35,1.66,8.27,4.93,1.82,3.1,2.74,7.2,2.74,12.18,0,7.08-1.81,14.48-5.39,22,2.77,5.16,5.99,9.37,9.55,12.53,3.57,3.17,7.7,4.77,12.28,4.77,6.48,0,12.26-2.92,17.19-8.69,5.03-5.89,8.95-13.76,11.64-23.39,2.71-9.69,4.08-20.17,4.08-31.15,0-12.04-1.67-23.54-4.97-34.19-3.28-10.58-8.34-19.26-15.04-25.82-6.63-6.48-14.98-9.76-24.83-9.76-10.49,0-19.29,2.26-26.14,6.72-6.72,4.38-11.98,10-15.63,16.73,2.91,6.39,4.39,12.77,4.39,18.97,0,3.97-.66,7.25-1.96,9.73-1.42,2.7-3.35,4.07-5.75,4.07-2.66,0-4.74-1.4-6.19-4.17-1.34-2.55-2.02-5.79-2.02-9.63,0-6.14,1.54-12.52,4.59-18.97-3.59-6.31-8.7-11.56-15.2-15.61-6.64-4.13-15.04-6.23-24.97-6.23-9.25,0-17.07,3.33-23.24,9.88-3.92,4.17-7.23,9.16-9.91,14.93,1.89,7.42,2.87,15.47,2.87,24.04ZM254.43,48.1c-3.03,10.66-4.56,22.26-4.56,34.48,0,3.69.14,7.31.41,10.86,3.28-10.74,4.96-21.74,4.96-32.78,0-4.4-.29-8.57-.81-12.56ZM186.42,45.15c-1.76,7.5-2.65,15.15-2.65,22.74,0,8.23.98,15.29,2.93,20.99,1.82,5.35,4.03,8.06,6.56,8.06,2.66,0,4.92-2.74,6.71-8.15,1.91-5.77,2.88-12.93,2.88-21.3,0-7.46-.83-14.98-2.45-22.36-1.48-6.71-3.67-12.8-6.51-18.11-3.35,5.2-5.86,11.29-7.46,18.13ZM132.75,42.39c6.28,11.54,9.47,23.86,9.47,36.67,0,8.25-1.33,16.2-3.96,23.77,4.64,11.68,11.58,21.45,20.69,29.04,9.43,7.85,20.97,11.83,34.31,11.83s24.38-4.11,33.65-12.22c7.87-6.88,14.15-15.52,18.76-25.69-1.3-7.6-1.98-15.53-1.98-23.72,0-12.97,1.71-25.37,5.07-36.84.92-3.15,2.01-6.14,3.22-8.98-1.33-4.44-3.05-8.53-5.18-12.25-5.57-9.7-13.15-14.42-23.2-14.42s-19.13,3.98-25.57,11.83c3.55,5.95,6.28,12.85,8.12,20.49,1.89,7.89,2.85,15.95,2.85,23.97,0,10.27-1.38,19.05-4.11,26.11-2.85,7.37-6.76,11.11-11.65,11.11s-8.71-3.65-11.55-10.85c-2.72-6.89-4.1-15.42-4.1-25.36,0-8.3,1.06-16.64,3.16-24.79,2.04-7.93,5.21-14.98,9.42-20.96-6.51-9-15.03-13.56-25.33-13.56-7.13,0-13.32,2.46-18.4,7.31-5.15,4.92-9.1,11.66-11.75,20.03-.76,2.41-1.41,4.91-1.95,7.47ZM130.68,62.76c0,10.08,1.36,19.99,4.04,29.58.88-4.32,1.33-8.76,1.33-13.29,0-8.79-1.68-17.34-4.95-25.57-.27,3.02-.42,6.11-.42,9.28ZM6.17,80.46c0,19.69,1.87,34.64,5.56,44.44,3.64,9.65,8.59,15.97,14.7,18.79,6.23,2.87,14.63,4.33,24.96,4.33,18.45,0,34.21-3.26,46.85-9.69,12.6-6.42,22.16-14.95,28.4-25.36,1.99-3.33,3.64-6.76,5-10.28-4.72-12.81-7.13-26.23-7.13-39.92,0-6.71.59-13.16,1.74-19.28-6.44-11.08-15.97-20.18-28.34-27.04-12.43-6.89-27.43-10.38-44.6-10.38-11.39,0-20.61,2.47-27.41,7.35-6.78,4.87-11.81,12.77-14.95,23.49-3.18,10.85-4.79,25.5-4.79,43.55ZM425.97,204.87c3.72,11.45,5.6,23.8,5.6,36.72,0,11.84-1.53,23.15-4.53,33.62-3.02,10.53-7.53,19.19-13.4,25.74-5.96,6.67-13.08,10.04-21.13,10.04-5.46,0-10.47-1.69-14.91-5.03-3.98-3-7.53-7.01-10.57-11.92-3.21,4.95-7.23,9-11.96,12.07-5.23,3.38-11.22,5.09-17.81,5.09s-12.54-1.91-17.59-5.68c-4.55-3.4-8.46-7.8-11.65-13.11-3.24,5.32-7.39,9.73-12.35,13.13-5.47,3.76-11.95,5.66-19.27,5.66-6.6,0-12.49-3.28-17.5-9.75-4.85-6.27-8.62-14.63-11.22-24.84-4.65,8.19-10.42,15.33-17.31,21.27-10.25,8.84-22.74,13.32-37.1,13.32s-27.42-4.34-37.82-12.9c-8.6-7.08-15.43-15.92-20.43-26.32-.88,1.82-1.84,3.62-2.88,5.39-6.7,11.34-17.03,20.64-30.68,27.64-13.63,6.98-30.46,10.52-50.04,10.52-10.89,0-20.05-1.69-27.23-5.02-7.28-3.38-13.21-10.57-17.61-21.36-4.35-10.67-6.56-26.59-6.56-47.34s2.12-37.19,6.29-48.91c4.22-11.84,10.32-20.16,18.14-24.72,7.77-4.53,17.48-6.83,28.87-6.83,18.32,0,34.41,3.78,47.81,11.24,11.3,6.29,20.4,14.31,27.13,23.89.27-.92.54-1.85.84-2.75,3.06-9.31,7.68-16.86,13.75-22.45,6.13-5.65,13.54-8.52,22.01-8.52,12.02,0,21.91,4.91,29.4,14.61,7.89-8.36,17.77-12.6,29.36-12.6,8.08,0,15.09,2.66,20.84,7.91,4.84,4.42,8.66,10.2,11.42,17.19,2.53-4.33,5.46-8.21,8.79-11.58,7.24-7.31,16.33-11.01,27.02-11.01s19.73,2.16,27.05,6.42c6.81,3.96,12.36,9.05,16.51,15.12,4.23-6.6,9.96-12.09,17.07-16.32,7.61-4.53,17.11-6.83,28.25-6.83s20.69,3.7,28.35,10.99c7.59,7.22,13.33,16.72,17.06,28.23ZM333.43,215.24c0,2.21.24,3.97.72,5.21.54,1.41,1.13,1.41,1.32,1.41.45,0,.86-.47,1.22-1.41.48-1.25.72-2.93.72-5.01,0-3.53-.66-7.46-1.97-11.73-1.34,4.15-2.02,8.02-2.02,11.53ZM186.42,206.47c-1.76,7.5-2.65,15.15-2.65,22.74,0,8.23.98,15.29,2.93,20.99,1.82,5.35,4.03,8.06,6.56,8.06,2.66,0,4.92-2.74,6.71-8.15,1.91-5.77,2.88-12.94,2.88-21.3,0-7.46-.83-14.98-2.45-22.35-1.48-6.71-3.67-12.8-6.51-18.12-3.35,5.21-5.86,11.3-7.46,18.13ZM131.65,264.01c-4.72-12.81-7.13-26.23-7.13-39.92,0-6.71.59-13.16,1.74-19.28-6.45-11.08-15.98-20.18-28.34-27.04-12.43-6.89-27.43-10.38-44.6-10.38-11.39,0-20.61,2.47-27.41,7.35-6.78,4.87-11.81,12.77-14.95,23.49-3.18,10.85-4.79,25.5-4.79,43.56,0,19.69,1.87,34.64,5.56,44.44,3.64,9.65,8.59,15.97,14.7,18.79,6.23,2.87,14.63,4.33,24.96,4.33,18.45,0,34.22-3.26,46.85-9.69,12.6-6.42,22.16-14.95,28.4-25.36,1.99-3.33,3.64-6.76,5-10.28ZM136.05,240.38c0-8.79-1.68-17.34-4.95-25.57-.27,3.02-.42,6.11-.42,9.28,0,10.08,1.36,19.99,4.04,29.58.88-4.32,1.33-8.76,1.33-13.29ZM248.76,206.55c.92-3.15,2.01-6.14,3.22-8.98-1.33-4.44-3.05-8.53-5.18-12.25-5.57-9.7-13.15-14.42-23.2-14.42s-19.13,3.98-25.57,11.83c3.55,5.96,6.28,12.84,8.12,20.49,1.89,7.89,2.85,15.95,2.85,23.97,0,10.27-1.38,19.05-4.11,26.11-2.85,7.37-6.77,11.11-11.65,11.11s-8.71-3.65-11.55-10.85c-2.72-6.89-4.1-15.42-4.1-25.36,0-8.3,1.06-16.64,3.16-24.79,2.04-7.93,5.21-14.98,9.42-20.96-6.51-9-15.03-13.56-25.33-13.56-7.13,0-13.32,2.46-18.4,7.31-5.15,4.92-9.1,11.66-11.75,20.03-.76,2.41-1.41,4.91-1.95,7.47,6.28,11.54,9.47,23.86,9.47,36.67,0,8.25-1.33,16.2-3.96,23.77,4.64,11.68,11.58,21.45,20.69,29.04,9.43,7.85,20.97,11.83,34.31,11.83s24.38-4.11,33.65-12.22c7.87-6.88,14.15-15.51,18.76-25.69-1.3-7.6-1.98-15.53-1.98-23.72,0-12.97,1.71-25.37,5.07-36.84ZM250.27,254.75c3.28-10.74,4.96-21.74,4.96-32.78,0-4.4-.29-8.57-.81-12.56-3.03,10.66-4.56,22.26-4.56,34.48,0,3.69.14,7.31.41,10.86ZM310.66,258.88c0-2.64-.22-4.76-.66-6.31-.4-1.43-.81-1.72-.9-1.72-.32,0-1.29,0-2.17,2.22-.71,1.78-1.07,4.27-1.07,7.42,0,4.95.74,10.17,2.2,15.56,1.72-5.74,2.59-11.5,2.59-17.17ZM369.89,264.81c0-3.24-.48-5.84-1.43-7.74-.86-1.71-1.94-2.5-3.41-2.5-.45,0-.84.85-.99,1.22-.45,1.11-.67,2.63-.67,4.5,0,2.8.41,6.2,1.22,10.1.63,3.05,1.51,6.12,2.6,9.13,1.78-5.17,2.68-10.1,2.68-14.7ZM425.4,241.58c0-12.04-1.67-23.54-4.97-34.19-3.28-10.58-8.34-19.26-15.04-25.82-6.63-6.48-14.98-9.76-24.83-9.76-10.49,0-19.29,2.26-26.14,6.72-6.73,4.38-11.98,10-15.63,16.72,2.91,6.39,4.39,12.77,4.39,18.97,0,3.97-.66,7.24-1.96,9.73-1.42,2.7-3.35,4.07-5.75,4.07-2.66,0-4.74-1.4-6.19-4.17-1.34-2.55-2.02-5.79-2.02-9.63,0-6.14,1.54-12.52,4.59-18.97-3.59-6.31-8.7-11.56-15.2-15.61-6.64-4.13-15.04-6.23-24.97-6.23-9.25,0-17.07,3.33-23.24,9.88-3.92,4.17-7.23,9.16-9.91,14.93,1.89,7.42,2.87,15.47,2.87,24.04,0,14.2-2.63,28.28-7.83,41.85-.51,1.33-1.07,2.63-1.63,3.92.37,2.06.79,4.1,1.26,6.09,2.2,9.28,5.4,16.87,9.49,22.57,3.97,5.52,8.58,8.32,13.7,8.32,12.58,0,21.85-6.48,28.33-19.82-3.33-7.79-5.01-15.6-5.01-23.21,0-4.96.77-9.07,2.3-12.21,1.64-3.38,4.03-5.1,7.11-5.1,2.39,0,4.26,1.71,5.55,5.08,1.17,3.05,1.77,6.97,1.77,11.63,0,7.93-1.62,16-4.82,24,2.78,5.82,6.33,10.59,10.56,14.19,4.25,3.61,9.32,5.44,15.08,5.44s11.01-1.66,15.56-4.94c4.47-3.22,8.13-7.44,10.9-12.58-1.89-4.13-3.36-8.43-4.38-12.81-1.06-4.54-1.6-8.82-1.6-12.7s.56-7.18,1.67-9.58c1.53-3.32,3.92-4.01,5.66-4.01,3.57,0,6.35,1.66,8.27,4.93,1.82,3.1,2.74,7.2,2.74,12.18,0,7.08-1.81,14.48-5.39,22,2.77,5.16,5.99,9.37,9.55,12.53,3.57,3.17,7.7,4.77,12.28,4.77,6.48,0,12.26-2.92,17.19-8.69,5.03-5.89,8.95-13.76,11.64-23.39,2.71-9.68,4.08-20.16,4.08-31.15ZM415.99,166.95v-6.97h-2.37v-1.71h6.82v1.71h-2.37v6.97h-2.09ZM421.71,166.95v-8.69h2.16l2.24,4.95h.07l2.24-4.95h2.14v8.69h-1.88v-5.42h-.1l-1.82,4.11h-1.23l-1.85-4.11h-.1v5.42h-1.86Z" style="fill: #ff001e;"></path>
        <g>
          <path d="M17.79,335.71c1.71,0,3.12.33,4.21.98,1.1.66,1.91,1.59,2.44,2.81.53,1.22.79,2.67.79,4.37s-.27,3.18-.8,4.42c-.53,1.25-1.35,2.2-2.45,2.87-1.1.67-2.49,1-4.19,1h-6.45v-16.46h6.45ZM15.31,349.02h1.86c.7,0,1.3-.1,1.81-.31.51-.21.92-.52,1.24-.94.32-.42.56-.94.72-1.58s.23-1.37.23-2.22c0-1.13-.14-2.07-.42-2.83-.28-.76-.71-1.34-1.3-1.72-.59-.38-1.35-.57-2.28-.57h-1.86v10.18Z" style="fill: #ff001e;"></path>
          <path d="M39.54,348.37c.55-.53.82-1.31.82-2.35v-10.31h3.95v10.77c0,1.21-.28,2.26-.84,3.16-.56.9-1.36,1.6-2.39,2.09-1.03.49-2.25.74-3.66.74s-2.63-.25-3.66-.74c-1.03-.49-1.83-1.19-2.39-2.09s-.84-1.95-.84-3.16v-10.77h3.95v10.31c0,1.05.27,1.84.81,2.36.54.52,1.25.78,2.12.78s1.57-.26,2.12-.8Z" style="fill: #ff001e;"></path>
          <path d="M50.46,352.17v-16.46h4.09l4.23,9.38h.13l4.23-9.38h4.06v16.46h-3.57v-10.26h-.19l-3.46,7.79h-2.33l-3.5-7.79h-.18v10.26h-3.52Z" style="fill: #ff001e;"></path>
          <path d="M83.64,336.49c.85.52,1.49,1.21,1.92,2.07.43.86.65,1.82.65,2.85s-.22,2-.66,2.85c-.44.86-1.09,1.54-1.95,2.04-.86.5-1.93.75-3.2.75h-2.94v5.11h-3.95v-16.46h6.94c1.27,0,2.33.26,3.18.78ZM81.49,339.44c-.48-.46-1.12-.69-1.94-.69h-2.09v5.33h2.09c.55,0,1.02-.1,1.42-.31.4-.21.7-.51.92-.91.21-.4.32-.88.32-1.44,0-.86-.24-1.52-.71-1.98Z" style="fill: #ff001e;"></path>
          <path d="M101.97,352.17h-10.57v-16.46h3.97v13.15h6.61v3.3Z" style="fill: #ff001e;"></path>
          <path d="M107.06,352.17v-16.46h3.97v16.46h-3.97Z" style="fill: #ff001e;"></path>
          <path d="M117.32,352.17v-16.46h3.13l6.6,9.78h.16v-9.78h3.69v16.46h-3.11l-6.62-9.88h-.16v9.88h-3.69Z" style="fill: #ff001e;"></path>
          <path d="M146.71,340.93c-.06-.32-.16-.62-.31-.89-.15-.27-.35-.51-.6-.72-.25-.21-.54-.37-.87-.48-.33-.11-.71-.17-1.13-.17-1.05,0-1.86.37-2.42,1.12-.56.74-.84,1.79-.84,3.15v1.93c0,.83.11,1.57.33,2.23.22.66.58,1.18,1.07,1.56.49.38,1.15.57,1.96.57.67,0,1.22-.12,1.66-.36.44-.24.77-.56.99-.95.22-.39.32-.82.32-1.28v-.72h-2.87v-2.78h6.61v3.21c0,.8-.13,1.57-.4,2.31-.26.73-.67,1.39-1.22,1.96-.55.58-1.25,1.03-2.11,1.36-.86.33-1.87.5-3.06.5-1.26,0-2.35-.19-3.27-.58-.92-.39-1.67-.92-2.27-1.61-.59-.69-1.03-1.49-1.32-2.41-.29-.92-.43-1.92-.43-3v-1.98c0-1.47.28-2.77.84-3.89.56-1.12,1.39-2,2.47-2.63,1.08-.64,2.41-.95,3.98-.95,1.08,0,2.03.15,2.85.45.82.3,1.51.71,2.07,1.22.56.52,1,1.11,1.3,1.77.3.66.48,1.35.52,2.07h-3.86Z" style="fill: #ff001e;"></path>
          <path d="M159.12,347.47c.03.26.12.52.27.76.15.24.35.45.61.63s.56.32.92.43.75.16,1.21.16c.62,0,1.13-.08,1.52-.25.4-.16.69-.39.89-.67.19-.29.29-.61.29-.97,0-.51-.2-.91-.61-1.18-.41-.27-1.02-.49-1.82-.66l-2.33-.51c-.88-.18-1.64-.46-2.3-.84s-1.16-.89-1.53-1.53c-.37-.63-.55-1.4-.55-2.31,0-1.05.27-1.96.81-2.73s1.29-1.36,2.25-1.77c.96-.41,2.07-.62,3.35-.62,1.37,0,2.53.23,3.45.68.93.45,1.63,1.05,2.12,1.79s.74,1.54.77,2.39h-3.67c-.05-.33-.18-.64-.39-.92s-.51-.51-.89-.69-.85-.27-1.41-.27c-.8,0-1.4.18-1.83.53-.42.35-.63.79-.63,1.32,0,.44.19.8.58,1.07.39.27.93.48,1.62.61l2.39.49c.84.16,1.6.42,2.28.78.68.36,1.22.86,1.62,1.49.4.64.6,1.46.6,2.46s-.26,1.97-.77,2.77c-.51.8-1.27,1.43-2.27,1.87-1,.45-2.24.68-3.72.68-1.16,0-2.15-.14-2.98-.41-.83-.27-1.51-.65-2.04-1.12-.53-.47-.92-1.01-1.18-1.61-.26-.6-.4-1.22-.42-1.86h3.77Z" style="fill: #ff001e;"></path>
          <path d="M193.05,351.92c-.11-.12-.23-.24-.37-.38-.13-.14-.25-.27-.36-.39-.11-.12-.19-.2-.23-.25-.56.5-1.28.89-2.14,1.17-.87.29-1.82.43-2.86.43-1.19,0-2.22-.19-3.09-.57s-1.54-.91-2.01-1.6c-.48-.69-.71-1.5-.71-2.44,0-.69.13-1.3.39-1.83.26-.53.61-.99,1.05-1.4.44-.41.95-.77,1.53-1.09.13-.07.26-.14.39-.21.13-.07.27-.13.4-.2-.6-.62-1.09-1.22-1.47-1.8-.38-.58-.57-1.23-.57-1.94,0-.77.22-1.45.65-2.03.43-.58,1.02-1.03,1.74-1.35.73-.32,1.53-.48,2.42-.48.79,0,1.54.14,2.25.42.72.28,1.3.7,1.76,1.25.46.56.69,1.26.69,2.1,0,.71-.16,1.33-.48,1.86-.32.53-.72.99-1.22,1.39-.5.4-1.02.74-1.57,1.04.12.13.31.34.57.62.26.29.54.59.84.92.3.33.58.63.84.92s.45.49.57.62c.21-.34.35-.76.42-1.25.07-.49.1-1,.1-1.54v-.98h3.04v1.22c0,.88-.11,1.74-.34,2.58s-.58,1.57-1.06,2.19l3.11,3.23h-4.06s-.12-.13-.23-.25ZM185.16,346.22c-.31.37-.46.84-.46,1.39,0,.48.12.89.37,1.24.25.34.58.6,1,.77.42.17.88.26,1.38.26s1-.09,1.51-.25c.51-.17.92-.43,1.23-.77l-3.5-3.79c-.07.03-.14.07-.21.1-.07.04-.14.07-.21.12-.43.25-.81.56-1.11.93ZM188.95,340.98c.35-.36.53-.81.53-1.34s-.16-.93-.48-1.24-.71-.45-1.19-.45-.9.16-1.22.47c-.32.31-.48.72-.48,1.21,0,.36.11.71.32,1.05.22.34.59.77,1.12,1.28.57-.3,1.03-.63,1.39-.99Z" style="fill: #ff001e;"></path>
          <path d="M216.26,335.71c1.71,0,3.12.33,4.21.98,1.1.66,1.91,1.59,2.44,2.81.53,1.22.79,2.67.79,4.37s-.27,3.18-.8,4.42c-.53,1.25-1.35,2.2-2.45,2.87s-2.49,1-4.19,1h-6.45v-16.46h6.45ZM213.78,349.02h1.86c.7,0,1.3-.1,1.81-.31.51-.21.92-.52,1.24-.94.32-.42.56-.94.72-1.58.16-.64.23-1.37.23-2.22,0-1.13-.14-2.07-.42-2.83-.28-.76-.71-1.34-1.3-1.72-.59-.38-1.35-.57-2.28-.57h-1.86v10.18Z" style="fill: #ff001e;"></path>
          <path d="M240.21,352.17h-11.03v-16.46h11.03v3.15h-7.11v3.58h6.68v2.89h-6.68v3.69h7.11v3.15Z" style="fill: #ff001e;"></path>
          <path d="M248.95,347.47c.03.26.12.52.27.76.15.24.35.45.61.63s.56.32.91.43c.35.1.76.16,1.21.16.62,0,1.13-.08,1.52-.25.4-.16.69-.39.89-.67s.29-.61.29-.97c0-.51-.2-.91-.61-1.18-.41-.27-1.02-.49-1.82-.66l-2.33-.51c-.88-.18-1.64-.46-2.3-.84-.66-.39-1.17-.89-1.53-1.53-.37-.63-.55-1.4-.55-2.31,0-1.05.27-1.96.81-2.73.54-.77,1.29-1.36,2.25-1.77.96-.41,2.08-.62,3.34-.62,1.38,0,2.53.23,3.46.68.93.45,1.64,1.05,2.12,1.79s.74,1.54.77,2.39h-3.66c-.05-.33-.18-.64-.4-.92-.21-.28-.51-.51-.89-.69s-.85-.27-1.41-.27c-.79,0-1.41.18-1.83.53-.42.35-.63.79-.63,1.32,0,.44.2.8.59,1.07.39.27.93.48,1.62.61l2.39.49c.84.16,1.6.42,2.28.78.68.36,1.22.86,1.62,1.49.4.64.6,1.46.6,2.46s-.26,1.97-.77,2.77c-.52.8-1.27,1.43-2.27,1.87-1,.45-2.24.68-3.72.68-1.16,0-2.15-.14-2.98-.41-.83-.27-1.51-.65-2.04-1.12-.53-.47-.92-1.01-1.18-1.61-.26-.6-.4-1.22-.42-1.86h3.77Z" style="fill: #ff001e;"></path>
          <path d="M277.21,348.93c-.57,1.13-1.41,2.01-2.49,2.62-1.09.61-2.41.92-3.96.92s-2.86-.31-3.96-.92c-1.1-.61-1.93-1.49-2.51-2.62-.58-1.13-.86-2.47-.86-4v-1.92c0-1.56.29-2.91.86-4.04.57-1.14,1.41-2.01,2.51-2.62,1.1-.61,2.42-.92,3.96-.92s2.87.31,3.96.93c1.09.62,1.92,1.49,2.49,2.62.58,1.13.86,2.47.86,4.03v1.92c0,1.54-.29,2.87-.86,4ZM273.62,340.57c-.28-.64-.66-1.12-1.15-1.44-.49-.32-1.06-.48-1.71-.48s-1.23.16-1.72.48c-.49.32-.88.8-1.15,1.44-.28.64-.42,1.44-.42,2.39v1.98c0,.95.14,1.74.42,2.39.28.64.66,1.13,1.15,1.45.49.32,1.06.48,1.72.48s1.22-.16,1.71-.48c.49-.32.88-.81,1.15-1.45.28-.64.42-1.44.42-2.39v-1.98c0-.96-.14-1.75-.42-2.39Z" style="fill: #ff001e;"></path>
          <path d="M283.72,335.71h7.28c1.52,0,2.74.36,3.67,1.07.92.71,1.39,1.7,1.39,2.97,0,.7-.14,1.3-.41,1.8-.27.5-.63.9-1.07,1.19-.44.3-.93.5-1.46.6v.18c.61.04,1.2.21,1.77.51.57.3,1.03.74,1.4,1.31.37.58.55,1.29.55,2.15,0,.99-.25,1.83-.76,2.53-.51.7-1.19,1.22-2.06,1.59-.86.37-1.83.55-2.9.55h-7.4v-16.46ZM287.64,342.41h1.93c.61,0,1.11-.08,1.49-.25.39-.16.67-.39.85-.69.18-.29.27-.64.27-1.03,0-.59-.19-1.05-.57-1.4-.38-.35-.92-.52-1.61-.52h-2.36v3.88ZM287.64,349.36h2.14c1.08,0,1.85-.2,2.33-.59.47-.39.71-.92.71-1.6,0-.45-.1-.84-.3-1.18-.2-.33-.49-.59-.88-.77-.39-.18-.88-.27-1.46-.27h-2.54v4.4Z" style="fill: #ff001e;"></path>
          <path d="M313.28,352.17h-11.03v-16.46h11.03v3.15h-7.11v3.58h6.68v2.89h-6.68v3.69h7.11v3.15Z" style="fill: #ff001e;"></path>
          <path d="M325.59,335.71c1.71,0,3.12.33,4.21.98,1.1.66,1.91,1.59,2.44,2.81.53,1.22.79,2.67.79,4.37s-.27,3.18-.8,4.42c-.54,1.25-1.35,2.2-2.45,2.87s-2.49,1-4.19,1h-6.45v-16.46h6.45ZM323.1,349.02h1.86c.7,0,1.3-.1,1.81-.31.51-.21.92-.52,1.24-.94.32-.42.56-.94.72-1.58s.23-1.37.23-2.22c0-1.13-.14-2.07-.42-2.83-.28-.76-.71-1.34-1.3-1.72-.59-.38-1.35-.57-2.28-.57h-1.86v10.18Z" style="fill: #ff001e;"></path>
          <path d="M338.51,352.17v-16.46h3.97v16.46h-3.97Z" style="fill: #ff001e;"></path>
          <path d="M359.8,352.17h-11.03v-16.46h11.03v3.15h-7.11v3.58h6.68v2.89h-6.68v3.69h7.11v3.15Z" style="fill: #ff001e;"></path>
          <path d="M365.65,352.17v-16.46h3.13l6.6,9.78h.16v-9.78h3.69v16.46h-3.11l-6.62-9.88h-.16v9.88h-3.69Z" style="fill: #ff001e;"></path>
          <path d="M388.91,344.89c0,.92.12,1.71.37,2.35.24.64.6,1.13,1.07,1.46.47.33,1.03.49,1.69.49.58,0,1.08-.12,1.5-.37.42-.25.75-.58.98-1.01.23-.42.37-.91.4-1.46h3.78v.47c-.03,1.13-.33,2.11-.91,2.96-.58.85-1.37,1.51-2.37,1.98-1,.47-2.13.71-3.4.71-1.54,0-2.84-.31-3.9-.93s-1.87-1.5-2.42-2.63c-.55-1.13-.83-2.48-.83-4.04v-1.83c0-1.57.28-2.92.83-4.06.55-1.14,1.36-2.02,2.43-2.64,1.07-.62,2.36-.93,3.89-.93.95,0,1.83.13,2.64.4.81.27,1.5.66,2.1,1.16.59.51,1.06,1.11,1.41,1.81.34.7.52,1.49.54,2.36v.46h-3.78c-.03-.56-.17-1.06-.4-1.51-.24-.44-.57-.79-.98-1.04s-.92-.38-1.49-.38c-.66,0-1.22.17-1.69.51s-.82.83-1.07,1.48-.37,1.43-.37,2.36v1.84Z" style="fill: #ff001e;"></path>
          <path d="M404.28,352.17v-16.46h3.97v16.46h-3.97Z" style="fill: #ff001e;"></path>
          <path d="M413.04,352.17l5.31-16.46h4.82l5.28,16.46h-4.21l-1.07-3.8h-5.1l-1.07,3.8h-3.95ZM420.55,339.26l-1.75,6.26h3.66l-1.73-6.26h-.18Z" style="fill: #ff001e;"></path>
        </g>
      </g>
    </g>
  </g>
</svg>