<?xml version="1.0" encoding="UTF-8"?>
<svg id="uuid-7403f78f-3720-4475-bd49-8f9fbf05e977" data-name="Capa 1" xmlns="http://www.w3.org/2000/svg" viewBox="0 0 1334.25 749.25">
  <g>
    <g transform="translate(11.2,130.9) scale(0.65)">
    <path d="M387.25,627.69c-.76,0-1.51.02-2.27.02-72.79,0-138.7-30.46-186.4-79.72-47.71-49.27-77.23-117.34-77.23-192.54s29.51-143.26,77.23-192.53c11.53-11.9,24.12-22.7,37.61-32.24l.72-.2c2.37-.26,9.4,1.87,18.48-1.59,7.64-2.16,25.32-28.38,25.25-33-3.93,3.76-4.35,8.05-12.16,10.18-5.23,1.43-12.31,2.96-17.56,4.42-10.54,2.92-10.62,9.86-13.29,14.93-14.98,10.25-28.89,22.01-41.55,35.07-48.33,49.91-78.22,118.83-78.22,194.96s29.89,145.06,78.22,194.97c48.34,49.91,115.13,80.78,188.9,80.78.76,0,1.51,0,2.27-.01v-3.5h0ZM236.15,144.71h0c6.94-3.95,38.22,1.85,41.49,5.16-5.47.18-8.85-2.56-15.89,1.55-4.7,2.75-10.8,6.75-15.55,9.49-13.74,7.92-18.13-5.61-28.12-.2l-1.03-1.02,4.93-2.82c1.86-1.52,5.28-8.07,14.18-12.15h0ZM230.59,119.01h0c-5.35,8.11-12.3,10.49-14.07,12.08l-3.52,4.41-.84-1.17c6.81-8.98-5.81-15.35,4.06-27.64,3.41-4.25,8.26-9.63,11.67-13.84,5.09-6.29,2.92-10.03,3.92-15.37,2.75,3.7,3.72,35.31-1.22,41.53h0ZM193.44,147.4h0c-5.97,9.06-13.73,11.71-15.71,13.49l-3.93,4.93-.94-1.31c7.61-10.03-6.48-17.13,4.54-30.85,3.8-4.74,9.22-10.75,13.03-15.45,5.69-7.02,3.26-11.19,4.38-17.16,3.07,4.14,4.15,39.42-1.36,46.36h0ZM194.36,179.56h0c6.84-6.96,45.56-10.55,50.5-7.75-6.38,2.02-11.27-.06-18.17,7.1-4.62,4.79-10.46,11.52-15.13,16.33-13.51,13.9-23.18-.55-33.12,9.13l-1.55-.85,4.85-4.97c1.68-2.4,3.53-11.25,12.62-18.99h0ZM161.69,175.13h0c-3.39,12.09-11.02,17.76-12.58,20.42l-2.6,6.83-1.49-1.11c4.86-13.75-13.2-16.62-5.88-35.65,2.53-6.58,6.39-15.12,8.93-21.64,3.8-9.76-.34-13.5-1.22-20.48,4.85,3.48,18.48,42.03,14.85,51.63h0ZM138.93,212.15h0c.15,14.28-6.37,22.88-7.22,26.28l-.67,8.27-1.99-.74c.93-16.55-19.69-13.94-17.75-37.02.67-7.98,2.16-18.53,2.85-26.45,1.05-11.86-4.67-14.62-7.85-21.95,6.4,2.25,33.54,39.98,32.63,51.61h0ZM157.35,232.27h0c5.62-9.97,48.36-25.85,54.81-24.19-6.6,4.24-12.77,3.37-18.41,13.59-3.76,6.84-8.32,16.24-12.15,23.11-11.05,19.86-26.42,6.46-34.71,20.44l-2.02-.49,3.98-7.11c1.16-3.23.56-13.81,8.5-25.35h0ZM115.2,254.92h0c3.47,13.65-.79,23.42-.81,26.88l1.28,8.08-2.08-.25c-2.96-16.08-22.12-8.79-25.63-31.36-1.22-7.81-2.24-18.27-3.41-26.02-1.75-11.61-7.88-12.93-12.63-19.23,6.66.67,41.45,30.53,43.28,41.89h0ZM136.8,299.69h0c2.82-11.09,39.92-37.59,46.58-37.67-5.27,5.81-11.45,6.58-14.21,17.93-1.85,7.59-3.78,17.86-5.68,25.48-5.48,22.06-23.81,13.14-28.17,28.81l-2.08.06,1.98-7.9c.28-3.43-3.07-13.48,1.57-26.7h0ZM103.08,301.86h0c-4.24-10.7-44.64-32.35-51.3-31.58,6,5.13,12.26,5.1,16.48,16.04,2.82,7.33,6.07,17.32,8.94,24.68,8.3,21.29,25.43,10.03,31.79,25.1l2.08-.21-3-7.62c-.71-3.38,1.33-13.83-5-26.42h0ZM94.39,351.05h0c10.28,11.31,11.18,22.84,12.92,26.16l5.35,7.09-2.12.82c-11.03-13.9-25.66,2.86-40.54-16.98-5.15-6.85-11.46-16.35-16.53-23.18-7.6-10.23-14.13-8.37-21.9-11.98,6.73-2.75,55.27,8.12,62.81,18.07h0ZM132.45,370.2h0c-.2-12.37,31.02-50.53,37.95-52.49-3.85,7.56-10.08,10.11-9.75,22.73.22,8.44,1.1,19.71,1.28,28.2.52,24.57-21.13,20.44-21.24,38.03l-2.15.65-.16-8.8c-.68-3.65-7.02-13.19-5.92-28.31h0ZM105.16,407.75h0c11.8,12.99,12.84,26.21,14.83,30.03l6.15,8.14-2.43.95c-12.66-15.95-29.46,3.28-46.53-19.49-5.91-7.87-13.15-18.77-18.98-26.62-8.72-11.74-16.23-9.61-25.14-13.75,7.72-3.16,63.44,9.32,72.1,20.74h0ZM147.07,450.87h0c-2.85-12.49,20.57-57.84,27.16-61.32-2.28,8.48-8.04,12.41-5,25.12,2.03,8.5,5.35,19.72,7.36,28.28,5.81,24.77-17.02,25.25-13.35,43.08l-2.04,1.12-2.05-8.88c-1.47-3.56-9.94-11.86-12.07-27.4h0ZM121.01,462.37h0c14.14,10.4,17.77,23.16,20.48,26.51l7.63,6.76-2.19,1.41c-15.57-13.13-28.23,9.04-49.47-9.9-7.35-6.55-16.6-15.81-23.87-22.34-10.87-9.78-17.8-6.21-27.36-8.51,6.94-4.62,64.03-3.41,74.78,6.08h0ZM142.16,512.32h0c15.77,7.7,21.63,19.61,24.89,22.41l8.72,5.28-1.9,1.79c-17.67-10.13-26.15,13.95-50.45-.88-8.4-5.13-19.16-12.58-27.48-17.71-12.44-7.68-18.63-2.92-28.44-3.47,6-5.79,62.38-14.83,74.66-7.43h0ZM181.35,557.63h0c18.88,6.03,27.38,18.38,31.49,20.99l10.61,4.49-1.84,2.3c-21.41-8.44-26.96,19.86-56.54,7.25-10.23-4.36-23.47-10.92-33.61-15.3-15.16-6.55-21.3-.22-32.36.76,5.77-7.45,67.32-26.75,82.25-20.48h0ZM176.28,496.15h0c-3.18-13.9,22.9-64.38,30.23-68.25-2.53,9.44-8.95,13.81-5.57,27.96,2.27,9.46,5.96,21.94,8.19,31.48,6.46,27.57-18.94,28.1-14.85,47.95l-2.27,1.25-2.29-9.89c-1.64-3.96-11.06-13.2-13.44-30.5h0ZM233.3,597.28h0c19.64,2.69,30.14,13.38,34.63,15.25l11.23,2.59-1.41,2.58c-22.54-4.62-23.13,24.22-54.44,16.89-10.83-2.53-25.01-6.71-35.75-9.28-16.06-3.84-21.02,3.45-31.75,6.33,4.4-8.33,61.7-37.96,77.48-34.35h0ZM226.38,562.22h0c-10.02-10.14-14.45-66.78-10.25-73.94,2.83,9.36-.33,16.45,10,26.69,6.9,6.85,16.62,15.52,23.54,22.45,20.02,20.03-1.29,33.86,12.63,48.59l-1.28,2.25-7.15-7.19c-3.48-2.5-16.36-5.39-27.49-18.85h0ZM296.77,624.1h0c19.81-.87,32.05,7.78,36.81,8.81l11.5.54-.93,2.8c-23.01-.52-18.43,27.96-50.54,26.35-11.1-.55-25.8-2.13-36.83-2.74-16.49-.9-20.06,7.16-30.1,11.91,2.83-8.99,53.91-48.39,70.09-47.66h0ZM298.53,601.81h0c-13.95-8.21-35.27-69.1-32.74-78.17,5.82,9.45,4.42,18.16,18.73,26.39,9.57,5.51,22.75,12.21,32.36,17.8,27.79,16.17,8.42,37.54,27.99,49.65l-.75,2.85-9.94-5.83c-4.55-1.73-19.52-1.17-35.64-12.7Z" fill="#ff001e" fill-rule="evenodd"/>
  </g>
    <g transform="translate(456.05,130.9) scale(0.65)">
    <path d="M947,627.69c.76,0,1.51.02,2.27.02,72.79,0,138.69-30.46,186.4-79.72,47.71-49.27,77.23-117.34,77.23-192.54s-29.51-143.26-77.23-192.53c-11.53-11.9-24.12-22.7-37.61-32.24l-.72-.2c-2.37-.26-9.4,1.87-18.48-1.59-7.64-2.16-25.32-28.38-25.25-33,3.93,3.76,4.35,8.05,12.17,10.18,5.22,1.43,12.3,2.96,17.56,4.42,10.54,2.92,10.62,9.86,13.28,14.93,14.98,10.25,28.89,22.01,41.55,35.07,48.33,49.91,78.23,118.83,78.23,194.96s-29.9,145.06-78.23,194.97c-48.34,49.91-115.13,80.78-188.9,80.78-.76,0-1.51,0-2.27-.01v-3.5h0ZM1098.1,144.71h0c-6.94-3.95-38.22,1.85-41.49,5.16,5.47.18,8.85-2.56,15.89,1.55,4.7,2.75,10.8,6.75,15.55,9.49,13.74,7.92,18.13-5.61,28.12-.2l1.03-1.02-4.93-2.82c-1.86-1.52-5.29-8.07-14.18-12.15h0ZM1103.65,119.01h0c5.35,8.11,12.3,10.49,14.07,12.08l3.52,4.41.84-1.17c-6.82-8.98,5.81-15.35-4.06-27.64-3.41-4.25-8.26-9.63-11.67-13.84-5.09-6.29-2.92-10.03-3.92-15.37-2.75,3.7-3.71,35.31,1.22,41.53h0ZM1140.8,147.4h0c5.97,9.06,13.73,11.71,15.71,13.49l3.93,4.93.94-1.31c-7.61-10.03,6.48-17.13-4.53-30.85-3.81-4.74-9.22-10.75-13.03-15.45-5.69-7.02-3.26-11.19-4.38-17.16-3.07,4.14-4.15,39.42,1.36,46.36h0ZM1139.89,179.56h0c-6.84-6.96-45.56-10.55-50.5-7.75,6.38,2.02,11.27-.06,18.17,7.1,4.62,4.79,10.46,11.52,15.13,16.33,13.51,13.9,23.18-.55,33.12,9.13l1.56-.85-4.86-4.97c-1.68-2.4-3.53-11.25-12.62-18.99h0ZM1172.56,175.13h0c3.39,12.09,11.01,17.76,12.57,20.42l2.6,6.83,1.49-1.11c-4.86-13.75,13.2-16.62,5.89-35.65-2.53-6.58-6.39-15.12-8.93-21.64-3.8-9.76.34-13.5,1.22-20.48-4.85,3.48-18.48,42.03-14.85,51.63h0ZM1195.32,212.15h0c-.15,14.28,6.37,22.88,7.22,26.28l.67,8.27,1.99-.74c-.93-16.55,19.69-13.94,17.76-37.02-.67-7.98-2.16-18.53-2.86-26.45-1.05-11.86,4.67-14.62,7.85-21.95-6.4,2.25-33.54,39.98-32.63,51.61h0ZM1176.89,232.27h0c-5.62-9.97-48.36-25.85-54.81-24.19,6.6,4.24,12.77,3.37,18.41,13.59,3.76,6.84,8.32,16.24,12.14,23.11,11.06,19.86,26.42,6.46,34.72,20.44l2.02-.49-3.98-7.11c-1.16-3.23-.56-13.81-8.5-25.35h0ZM1219.05,254.92h0c-3.46,13.65.79,23.42.81,26.88l-1.28,8.08,2.08-.25c2.96-16.08,22.12-8.79,25.63-31.36,1.22-7.81,2.24-18.27,3.41-26.02,1.76-11.61,7.88-12.93,12.63-19.23-6.66.67-41.45,30.53-43.28,41.89h0ZM1197.45,299.69h0c-2.82-11.09-39.92-37.59-46.58-37.67,5.27,5.81,11.45,6.58,14.21,17.93,1.85,7.59,3.79,17.86,5.68,25.48,5.48,22.06,23.81,13.14,28.17,28.81l2.08.06-1.99-7.9c-.28-3.43,3.07-13.48-1.57-26.7h0ZM1231.17,301.86h0c4.24-10.7,44.65-32.35,51.3-31.58-6,5.13-12.26,5.1-16.48,16.04-2.82,7.33-6.07,17.32-8.94,24.68-8.3,21.29-25.43,10.03-31.79,25.1l-2.08-.21,3-7.62c.72-3.38-1.33-13.83,5-26.42h0ZM1239.86,351.05h0c-10.28,11.31-11.19,22.84-12.92,26.16l-5.35,7.09,2.12.82c11.03-13.9,25.66,2.86,40.54-16.98,5.15-6.85,11.46-16.35,16.53-23.18,7.6-10.23,14.13-8.37,21.9-11.98-6.73-2.75-55.27,8.12-62.81,18.07h0ZM1201.8,370.2h0c.2-12.37-31.02-50.53-37.95-52.49,3.85,7.56,10.08,10.11,9.76,22.73-.22,8.44-1.1,19.71-1.28,28.2-.52,24.57,21.13,20.44,21.25,38.03l2.15.65.16-8.8c.68-3.65,7.02-13.19,5.92-28.31h0ZM1229.09,407.75h0c-11.8,12.99-12.84,26.21-14.83,30.03l-6.14,8.14,2.43.95c12.66-15.95,29.46,3.28,46.53-19.49,5.91-7.87,13.15-18.77,18.98-26.62,8.72-11.74,16.23-9.61,25.14-13.75-7.72-3.16-63.44,9.32-72.1,20.74h0ZM1187.18,450.87h0c2.86-12.49-20.57-57.84-27.16-61.32,2.27,8.48,8.04,12.41,5,25.12-2.03,8.5-5.35,19.72-7.35,28.28-5.81,24.77,17.01,25.25,13.35,43.08l2.04,1.12,2.06-8.88c1.47-3.56,9.94-11.86,12.07-27.4h0ZM1213.24,462.37h0c-14.14,10.4-17.77,23.16-20.48,26.51l-7.63,6.76,2.2,1.41c15.57-13.13,28.22,9.04,49.47-9.9,7.34-6.55,16.6-15.81,23.87-22.34,10.87-9.78,17.8-6.21,27.36-8.51-6.94-4.62-64.03-3.41-74.78,6.08h0ZM1192.09,512.32h0c-15.77,7.7-21.63,19.61-24.9,22.41l-8.72,5.28,1.9,1.79c17.67-10.13,26.16,13.95,50.45-.88,8.4-5.13,19.16-12.58,27.49-17.71,12.44-7.68,18.63-2.92,28.44-3.47-6.01-5.79-62.39-14.83-74.66-7.43h0ZM1152.9,557.63h0c-18.88,6.03-27.38,18.38-31.49,20.99l-10.61,4.49,1.84,2.3c21.4-8.44,26.95,19.86,56.53,7.25,10.23-4.36,23.47-10.92,33.61-15.3,15.16-6.55,21.3-.22,32.36.76-5.77-7.45-67.32-26.75-82.24-20.48h0ZM1157.97,496.15h0c3.18-13.9-22.9-64.38-30.23-68.25,2.53,9.44,8.95,13.81,5.57,27.96-2.26,9.46-5.96,21.94-8.19,31.48-6.46,27.57,18.93,28.1,14.85,47.95l2.27,1.25,2.29-9.89c1.64-3.96,11.06-13.2,13.44-30.5h0ZM1100.95,597.28h0c-19.64,2.69-30.14,13.38-34.63,15.25l-11.23,2.59,1.41,2.58c22.54-4.62,23.13,24.22,54.44,16.89,10.83-2.53,25.01-6.71,35.75-9.28,16.06-3.84,21.02,3.45,31.74,6.33-4.4-8.33-61.7-37.96-77.49-34.35h0ZM1107.87,562.22h0c10.02-10.14,14.44-66.78,10.25-73.94-2.83,9.36.33,16.45-10,26.69-6.9,6.85-16.62,15.52-23.54,22.45-20.01,20.03,1.3,33.86-12.63,48.59l1.28,2.25,7.15-7.19c3.48-2.5,16.36-5.39,27.49-18.85h0ZM1037.48,624.1h0c-19.81-.87-32.05,7.78-36.81,8.81l-11.5.54.93,2.8c23-.52,18.42,27.96,50.54,26.35,11.1-.55,25.8-2.13,36.83-2.74,16.49-.9,20.06,7.16,30.1,11.91-2.83-8.99-53.92-48.39-70.09-47.66h0ZM1035.72,601.81h0c13.95-8.21,35.27-69.1,32.75-78.17-5.82,9.45-4.42,18.16-18.73,26.39-9.57,5.51-22.75,12.21-32.36,17.8-27.8,16.17-8.42,37.54-27.99,49.65l.75,2.85,9.94-5.83c4.54-1.73,19.52-1.17,35.64-12.7Z" fill="#ff001e" fill-rule="evenodd"/>
  </g>
  </g>
  <line x1="322.1" y1="505.91" x2="1012.14" y2="505.91" fill="none" stroke="#ff001e" stroke-miterlimit="10"/>
</svg>
