<?xml version="1.0" encoding="UTF-8"?>
<svg id="Capa_2" data-name="Capa 2" xmlns="http://www.w3.org/2000/svg" viewBox="0 0 179.74 97.76">
  <g id="CREATIVIDAD">
    <g>
      <path d="M4.74.3c1.36,0,2.49.27,3.4.8.9.53,1.58,1.3,2.02,2.32.45,1.02.67,2.26.67,3.74s-.23,2.72-.68,3.74c-.45,1.03-1.13,1.81-2.03,2.34-.9.53-2.03.8-3.39.8H0V.3h4.74ZM2.29,12.12h2.2c.68,0,1.27-.1,1.77-.31s.92-.51,1.24-.93c.32-.41.57-.93.73-1.54.16-.61.25-1.33.25-2.16,0-1.1-.14-2.02-.43-2.76-.29-.74-.73-1.29-1.32-1.66s-1.34-.55-2.24-.55h-2.2v9.89Z" style="fill: #fff;"/>
      <path d="M26.43,14.04h-8.58V.3h8.58v1.92h-6.3v3.92h5.93v1.84h-5.93v4.14h6.3v1.92Z" style="fill: #fff;"/>
      <path d="M35.04,10.43c.05.3.16.57.33.81.16.24.38.46.64.63.26.18.57.32.93.41s.74.15,1.16.15c.6,0,1.12-.09,1.54-.27.42-.18.75-.43.97-.74.22-.32.34-.69.34-1.12,0-.52-.18-.93-.53-1.23-.35-.31-.91-.55-1.65-.73l-2.25-.56c-.7-.17-1.3-.42-1.8-.74s-.89-.74-1.16-1.24c-.27-.5-.4-1.07-.4-1.72,0-.81.21-1.51.64-2.12.43-.61,1.01-1.09,1.76-1.43s1.6-.51,2.57-.51,1.83.16,2.54.49,1.28.77,1.69,1.34c.41.56.64,1.2.7,1.9h-2.21c-.07-.37-.23-.69-.47-.97-.24-.28-.55-.5-.93-.65-.38-.16-.83-.24-1.34-.24-.81,0-1.45.19-1.93.57-.48.38-.72.88-.72,1.49,0,.45.16.82.49,1.12s.8.52,1.41.67l2.24.55c.77.19,1.43.44,1.97.76.54.32.96.73,1.24,1.23.29.5.43,1.1.43,1.82,0,.85-.21,1.58-.63,2.22s-1.03,1.13-1.82,1.48c-.79.35-1.74.52-2.85.52-.8,0-1.51-.1-2.12-.29-.62-.19-1.14-.47-1.58-.82-.44-.35-.77-.76-1.01-1.24-.24-.47-.38-.98-.42-1.54h2.25Z" style="fill: #fff;"/>
      <path d="M60.46,11.45c-.46.93-1.12,1.64-1.97,2.13s-1.87.73-3.04.73-2.19-.24-3.04-.73c-.86-.49-1.51-1.2-1.98-2.13-.46-.93-.69-2.04-.69-3.34v-1.87c0-1.3.23-2.42.69-3.34.46-.93,1.12-1.64,1.98-2.13.86-.49,1.87-.74,3.04-.74s2.19.25,3.04.74c.85.49,1.51,1.2,1.97,2.13.46.93.69,2.04.69,3.34v1.87c0,1.3-.23,2.41-.69,3.34ZM58.4,3.86c-.3-.63-.7-1.1-1.21-1.41s-1.09-.47-1.74-.47-1.24.16-1.75.47-.91.78-1.21,1.41c-.3.63-.44,1.41-.44,2.36v1.9c0,.95.15,1.73.44,2.36.29.63.7,1.1,1.21,1.42.51.32,1.09.47,1.75.47s1.23-.16,1.74-.47c.51-.32.91-.79,1.21-1.42.29-.63.44-1.41.44-2.36v-1.9c0-.95-.15-1.73-.44-2.36Z" style="fill: #fff;"/>
      <path d="M68.35.3h5.48c1.2,0,2.16.3,2.87.9.71.6,1.07,1.43,1.07,2.48,0,.54-.1,1.01-.29,1.41-.19.41-.46.74-.8,1.01-.34.27-.74.47-1.2.59v.1c.58.07,1.1.24,1.55.52s.81.66,1.07,1.14c.26.48.39,1.05.39,1.72,0,.81-.2,1.51-.6,2.08-.4.58-.96,1.02-1.68,1.32s-1.55.46-2.51.46h-5.38V.3ZM70.62,6.11h1.93c.68,0,1.24-.08,1.67-.23.43-.15.75-.38.96-.68s.32-.68.32-1.13c0-.61-.19-1.09-.57-1.43-.38-.35-.91-.52-1.6-.52h-2.72v4ZM70.62,12.23h2.18c1.19,0,2.06-.17,2.58-.52.53-.35.79-.89.79-1.61,0-.48-.1-.88-.31-1.22s-.5-.6-.9-.77c-.4-.18-.88-.27-1.44-.27h-2.91v4.4Z" style="fill: #fff;"/>
      <path d="M94.08,14.04h-8.58V.3h8.58v1.92h-6.3v3.92h5.93v1.84h-5.93v4.14h6.3v1.92Z" style="fill: #fff;"/>
      <path d="M106.12.3c1.36,0,2.49.27,3.4.8.9.53,1.58,1.3,2.02,2.32.45,1.02.67,2.26.67,3.74s-.23,2.72-.68,3.74c-.45,1.03-1.13,1.81-2.03,2.34-.9.53-2.03.8-3.39.8h-4.74V.3h4.74ZM103.66,12.12h2.2c.68,0,1.27-.1,1.77-.31s.92-.51,1.24-.93c.32-.41.57-.93.73-1.54.16-.61.25-1.33.25-2.16,0-1.1-.14-2.02-.43-2.76-.29-.74-.73-1.29-1.32-1.66s-1.34-.55-2.24-.55h-2.2v9.89Z" style="fill: #fff;"/>
      <path d="M127.8,14.04h-8.58V.3h8.58v1.92h-6.3v3.92h5.93v1.84h-5.93v4.14h6.3v1.92Z" style="fill: #fff;"/>
      <path d="M136.86,8.12c0,.9.13,1.66.39,2.29.26.63.64,1.11,1.13,1.44s1.09.49,1.79.49c.56,0,1.06-.1,1.48-.31.43-.21.77-.49,1.02-.86.25-.37.41-.79.46-1.26h2.22v.16c-.06.83-.32,1.56-.78,2.19-.46.64-1.07,1.14-1.84,1.5-.77.36-1.63.54-2.59.54-1.19,0-2.21-.24-3.05-.73-.84-.49-1.48-1.2-1.91-2.12-.44-.92-.65-2.03-.65-3.34v-1.84c0-1.3.22-2.41.66-3.35.44-.94,1.08-1.65,1.92-2.15.84-.5,1.85-.75,3.03-.75.72,0,1.39.11,2.01.32.61.21,1.15.52,1.62.91.46.4.83.86,1.11,1.4.27.54.43,1.14.47,1.79v.15h-2.22c-.05-.5-.21-.95-.47-1.34-.26-.39-.6-.7-1.03-.92-.43-.22-.92-.33-1.47-.33-.69,0-1.28.17-1.78.51-.49.34-.87.83-1.14,1.46s-.4,1.41-.4,2.32v1.82Z" style="fill: #fff;"/>
      <path d="M161.06,14.04h-8.58V.3h8.58v1.92h-6.3v3.92h5.93v1.84h-5.93v4.14h6.3v1.92Z" style="fill: #fff;"/>
      <path d="M176.1.83c.69.35,1.22.84,1.59,1.47.37.63.55,1.38.55,2.23,0,.65-.11,1.23-.34,1.75-.23.51-.53.95-.92,1.3-.38.36-.81.62-1.27.8l2.78,5.67h-2.57l-2.47-5.28h-2.85v5.28h-2.26V.3h5.25c.97,0,1.8.17,2.49.52ZM173.23,6.95c.85,0,1.5-.2,1.96-.59.46-.39.69-.97.69-1.75s-.23-1.39-.7-1.81c-.47-.42-1.1-.63-1.9-.63h-2.68v4.77h2.62Z" style="fill: #fff;"/>
    </g>
    <g>
      <path d="M43.21,94.9c-.46.93-1.12,1.64-1.97,2.13s-1.87.73-3.04.73-2.19-.24-3.04-.73c-.86-.49-1.51-1.2-1.98-2.13-.46-.93-.69-2.04-.69-3.34v-1.87c0-1.3.23-2.42.69-3.34.46-.93,1.12-1.64,1.98-2.13.86-.49,1.87-.74,3.04-.74s2.19.25,3.04.74c.85.49,1.51,1.2,1.97,2.13.46.93.69,2.04.69,3.34v1.87c0,1.3-.23,2.41-.69,3.34ZM41.15,87.31c-.3-.63-.7-1.1-1.21-1.41s-1.09-.47-1.74-.47-1.24.16-1.75.47-.91.78-1.21,1.41c-.3.63-.44,1.41-.44,2.36v1.9c0,.95.15,1.73.44,2.36.29.63.7,1.1,1.21,1.42.51.32,1.09.47,1.75.47s1.23-.16,1.74-.47c.51-.32.91-.79,1.21-1.42.29-.63.44-1.41.44-2.36v-1.9c0-.95-.15-1.73-.44-2.36Z" style="fill: #fff;"/>
      <path d="M49.98,83.75h5.48c1.2,0,2.16.3,2.87.9.71.6,1.07,1.43,1.07,2.48,0,.54-.1,1.01-.29,1.41-.19.41-.46.74-.8,1.01-.34.27-.74.47-1.2.59v.1c.58.07,1.1.24,1.55.52s.81.66,1.07,1.14c.26.48.39,1.05.39,1.72,0,.81-.2,1.51-.6,2.08-.4.58-.96,1.02-1.68,1.32s-1.55.46-2.51.46h-5.38v-13.74ZM52.26,89.56h1.93c.68,0,1.24-.08,1.67-.23.43-.15.75-.38.96-.68s.32-.68.32-1.13c0-.61-.19-1.09-.57-1.43-.38-.35-.91-.52-1.6-.52h-2.72v4ZM52.26,95.68h2.18c1.19,0,2.06-.17,2.58-.52.53-.35.79-.89.79-1.61,0-.48-.1-.88-.31-1.22s-.5-.6-.9-.77c-.4-.18-.88-.27-1.44-.27h-2.91v4.4Z" style="fill: #fff;"/>
      <path d="M75.47,97.49h-8.33v-13.74h2.29v11.76h6.05v1.98Z" style="fill: #fff;"/>
      <path d="M82.59,97.49v-13.74h2.29v13.74h-2.29Z" style="fill: #fff;"/>
      <path d="M100.7,87.67c-.08-.34-.21-.64-.38-.92-.17-.27-.38-.51-.64-.71s-.55-.35-.88-.46c-.33-.11-.7-.16-1.1-.16-1.06,0-1.89.37-2.48,1.12-.59.75-.89,1.79-.89,3.14v1.79c0,.89.13,1.65.39,2.3.26.65.64,1.15,1.15,1.5.51.35,1.14.53,1.89.53.68,0,1.25-.12,1.71-.36s.79-.57,1.02-.98.34-.87.34-1.39v-1.09h-3.16v-1.8h5.35v2.79c0,.66-.11,1.29-.34,1.87-.23.58-.56,1.09-1,1.52s-.99.78-1.65,1.02c-.65.25-1.42.37-2.29.37-.93,0-1.76-.15-2.47-.44-.71-.29-1.31-.71-1.8-1.26s-.85-1.21-1.09-1.98-.37-1.64-.37-2.59v-1.81c0-1.26.23-2.35.68-3.28s1.11-1.65,1.96-2.16c.85-.51,1.88-.77,3.07-.77.75,0,1.43.11,2.04.32.61.21,1.14.51,1.59.89s.8.82,1.07,1.33c.27.51.44,1.06.51,1.66h-2.25Z" style="fill: #fff;"/>
      <path d="M108.19,97.49l4.73-13.74h2.55l4.73,13.74h-2.42l-1.22-3.8h-4.82l-1.22,3.8h-2.34ZM114.11,86.12l-1.85,5.81h3.8l-1.84-5.81h-.1Z" style="fill: #fff;"/>
      <path d="M128.28,91.57c0,.9.13,1.66.39,2.29.26.63.64,1.11,1.13,1.44s1.09.49,1.79.49c.56,0,1.06-.1,1.48-.31.43-.21.77-.49,1.02-.86.25-.37.41-.79.46-1.26h2.22v.16c-.06.83-.32,1.56-.78,2.19-.46.64-1.07,1.14-1.84,1.5-.77.36-1.63.54-2.59.54-1.19,0-2.21-.24-3.05-.73-.84-.49-1.48-1.2-1.91-2.12-.44-.92-.65-2.03-.65-3.34v-1.84c0-1.3.22-2.41.66-3.35.44-.94,1.08-1.65,1.92-2.15.84-.5,1.85-.75,3.03-.75.72,0,1.39.11,2.01.32.61.21,1.15.52,1.62.91.46.4.83.86,1.11,1.4.27.54.43,1.14.47,1.79v.15h-2.22c-.05-.5-.21-.95-.47-1.34-.26-.39-.6-.7-1.03-.92-.43-.22-.92-.33-1.47-.33-.69,0-1.28.17-1.78.51-.49.34-.87.83-1.14,1.46s-.4,1.41-.4,2.32v1.82Z" style="fill: #fff;"/>
      <path d="M144.08,97.49v-13.74h2.29v13.74h-2.29Z" style="fill: #fff;"/>
      <path d="M163.04,94.9c-.46.93-1.12,1.64-1.97,2.13s-1.87.73-3.04.73-2.19-.24-3.04-.73c-.86-.49-1.51-1.2-1.98-2.13-.46-.93-.69-2.04-.69-3.34v-1.87c0-1.3.23-2.42.69-3.34.46-.93,1.12-1.64,1.98-2.13.86-.49,1.87-.74,3.04-.74s2.19.25,3.04.74c.85.49,1.51,1.2,1.97,2.13.46.93.69,2.04.69,3.34v1.87c0,1.3-.23,2.41-.69,3.34ZM160.98,87.31c-.3-.63-.7-1.1-1.21-1.41s-1.09-.47-1.74-.47-1.24.16-1.75.47-.91.78-1.21,1.41c-.3.63-.44,1.41-.44,2.36v1.9c0,.95.15,1.73.44,2.36.29.63.7,1.1,1.21,1.42.51.32,1.09.47,1.75.47s1.23-.16,1.74-.47c.51-.32.91-.79,1.21-1.42.29-.63.44-1.41.44-2.36v-1.9c0-.95-.15-1.73-.44-2.36Z" style="fill: #fff;"/>
      <path d="M169.02,97.49v-13.74h2.01l6.41,9.86h.1v-9.86h2.19v13.74h-2l-6.43-9.89h-.09v9.89h-2.19Z" style="fill: #fff;"/>
    </g>
    <g>
      <path d="M8.58,34.91H0v-13.74h8.58v1.92H2.27v3.92h5.93v1.84H2.27v4.14h6.3v1.92Z" style="fill: #fff;"/>
      <path d="M19.17,31.29c.05.3.16.57.33.81.16.24.38.46.64.63.26.18.57.32.93.41s.74.15,1.16.15c.6,0,1.12-.09,1.54-.27.42-.18.75-.43.97-.74.22-.32.34-.69.34-1.12,0-.52-.18-.93-.53-1.23-.35-.31-.91-.55-1.65-.73l-2.25-.56c-.7-.17-1.3-.42-1.8-.74s-.89-.74-1.16-1.24c-.27-.5-.4-1.07-.4-1.72,0-.81.21-1.51.64-2.12.43-.61,1.01-1.09,1.76-1.43s1.6-.51,2.57-.51,1.83.16,2.54.49,1.28.77,1.69,1.34c.41.56.64,1.2.7,1.9h-2.21c-.07-.37-.23-.69-.47-.97-.24-.28-.55-.5-.93-.65-.38-.16-.83-.24-1.34-.24-.81,0-1.45.19-1.93.57-.48.38-.72.88-.72,1.49,0,.45.16.82.49,1.12s.8.52,1.41.67l2.24.55c.77.19,1.43.44,1.97.76.54.32.96.73,1.24,1.23.29.5.43,1.1.43,1.82,0,.85-.21,1.58-.63,2.22s-1.03,1.13-1.82,1.48c-.79.35-1.74.52-2.85.52-.8,0-1.51-.1-2.12-.29-.62-.19-1.14-.47-1.58-.82-.44-.35-.77-.76-1.01-1.24-.24-.47-.38-.98-.42-1.54h2.25Z" style="fill: #fff;"/>
      <path d="M76.01,32.36c.56-.56.84-1.35.84-2.35v-8.84h2.29v9c0,1-.22,1.88-.67,2.63-.45.75-1.07,1.34-1.88,1.76-.81.42-1.75.62-2.85.62s-2.04-.21-2.84-.62c-.81-.42-1.44-1-1.88-1.76-.45-.76-.67-1.63-.67-2.63v-9h2.29v8.84c0,1.01.28,1.79.85,2.35.57.56,1.32.85,2.26.85s1.7-.28,2.26-.85Z" style="fill: #fff;"/>
      <path d="M85.51,34.91v-13.74h2.01l6.41,9.86h.1v-9.86h2.19v13.74h-2l-6.43-9.89h-.09v9.89h-2.19Z" style="fill: #fff;"/>
    </g>
    <path d="M4.6,76.49v-5.54L0,62.75h2.56l3.15,5.95h.1l3.16-5.95h2.51l-4.6,8.16v5.58h-2.28Z" style="fill: #fff;"/>
    <g>
      <path d="M40.28,73.94c.56-.56.84-1.35.84-2.35v-8.84h2.29v9c0,1-.22,1.88-.67,2.63-.45.75-1.07,1.34-1.88,1.76-.81.42-1.75.62-2.85.62s-2.04-.21-2.84-.62c-.81-.42-1.44-1-1.88-1.76-.45-.76-.67-1.63-.67-2.63v-9h2.29v8.84c0,1.01.28,1.79.85,2.35.57.56,1.32.85,2.26.85s1.7-.28,2.26-.85Z" style="fill: #fff;"/>
      <path d="M50.08,76.49v-13.74h2.01l6.41,9.86h.1v-9.86h2.19v13.74h-2l-6.43-9.89h-.09v9.89h-2.19Z" style="fill: #fff;"/>
      <path d="M67.42,76.49l4.73-13.74h2.55l4.73,13.74h-2.42l-1.22-3.8h-4.82l-1.22,3.8h-2.34ZM73.34,65.12l-1.85,5.81h3.8l-1.84-5.81h-.1Z" style="fill: #fff;"/>
    </g>
    <g>
      <path d="M73.09,42.02c1.36,0,2.49.27,3.4.8.9.53,1.58,1.3,2.02,2.32.45,1.02.67,2.26.67,3.74s-.23,2.72-.68,3.74c-.45,1.03-1.13,1.81-2.03,2.34-.9.53-2.03.8-3.39.8h-4.74v-13.74h4.74ZM70.63,53.83h2.2c.68,0,1.27-.1,1.77-.31s.92-.51,1.24-.93c.32-.41.57-.93.73-1.54.16-.61.25-1.33.25-2.16,0-1.1-.14-2.02-.43-2.76-.29-.74-.73-1.29-1.32-1.66s-1.34-.55-2.24-.55h-2.2v9.89Z" style="fill: #fff;"/>
      <path d="M94.08,55.76h-8.58v-13.74h8.58v1.92h-6.3v3.92h5.93v1.84h-5.93v4.14h6.3v1.92Z" style="fill: #fff;"/>
      <path d="M109.46,42.54c.69.35,1.22.84,1.59,1.47.37.63.55,1.38.55,2.23,0,.65-.11,1.23-.34,1.75-.23.51-.53.95-.92,1.3-.38.36-.81.62-1.27.8l2.78,5.67h-2.57l-2.47-5.28h-2.85v5.28h-2.26v-13.74h5.25c.97,0,1.8.17,2.49.52ZM106.6,48.66c.85,0,1.5-.2,1.96-.59.46-.39.69-.97.69-1.75s-.23-1.39-.7-1.81c-.47-.42-1.1-.63-1.9-.63h-2.68v4.77h2.62Z" style="fill: #fff;"/>
      <path d="M127.8,55.76h-8.58v-13.74h8.58v1.92h-6.3v3.92h5.93v1.84h-5.93v4.14h6.3v1.92Z" style="fill: #fff;"/>
      <path d="M136.86,49.84c0,.9.13,1.66.39,2.29.26.63.64,1.11,1.13,1.44s1.09.49,1.79.49c.56,0,1.06-.1,1.48-.31.43-.21.77-.49,1.02-.86.25-.37.41-.79.46-1.26h2.22v.16c-.06.83-.32,1.56-.78,2.19-.46.64-1.07,1.14-1.84,1.5-.77.36-1.63.54-2.59.54-1.19,0-2.21-.24-3.05-.73-.84-.49-1.48-1.2-1.91-2.12-.44-.92-.65-2.03-.65-3.34v-1.84c0-1.3.22-2.41.66-3.35.44-.94,1.08-1.65,1.92-2.15.84-.5,1.85-.75,3.03-.75.72,0,1.39.11,2.01.32.61.21,1.15.52,1.62.91.46.4.83.86,1.11,1.4.27.54.43,1.14.47,1.79v.15h-2.22c-.05-.5-.21-.95-.47-1.34-.26-.39-.6-.7-1.03-.92-.43-.22-.92-.33-1.47-.33-.69,0-1.28.17-1.78.51-.49.34-.87.83-1.14,1.46s-.4,1.41-.4,2.32v1.82Z" style="fill: #fff;"/>
      <path d="M159.92,55.76v-6.09h-6.29v6.09h-2.29v-13.74h2.29v5.71h6.29v-5.71h2.29v13.74h-2.29Z" style="fill: #fff;"/>
      <path d="M177.8,53.17c-.46.93-1.12,1.64-1.97,2.13s-1.87.73-3.04.73-2.19-.24-3.04-.73c-.86-.49-1.51-1.2-1.98-2.13-.46-.93-.69-2.04-.69-3.34v-1.87c0-1.3.23-2.42.69-3.34.46-.93,1.12-1.64,1.98-2.13.86-.49,1.87-.74,3.04-.74s2.19.25,3.04.74c.85.49,1.51,1.2,1.97,2.13.46.93.69,2.04.69,3.34v1.87c0,1.3-.23,2.41-.69,3.34ZM175.73,45.58c-.3-.63-.7-1.1-1.21-1.41s-1.09-.47-1.74-.47-1.24.16-1.75.47-.91.78-1.21,1.41c-.3.63-.44,1.41-.44,2.36v1.9c0,.95.15,1.73.44,2.36.29.63.7,1.1,1.21,1.42.51.32,1.09.47,1.75.47s1.23-.16,1.74-.47c.51-.32.91-.79,1.21-1.42.29-.63.44-1.41.44-2.36v-1.9c0-.95-.15-1.73-.44-2.36Z" style="fill: #fff;"/>
    </g>
  </g>
</svg>