<?xml version="1.0" encoding="UTF-8"?>
<svg id="Capa_2" data-name="Capa 2" xmlns="http://www.w3.org/2000/svg" viewBox="0 0 129.6 130.32">
  <g id="Capa_1-2" data-name="Capa 1">
    <g>
      <path d="M88.79,52.9c-1.12-1.94-2.49-3.73-4.1-5.34l-5.57-5.57c.17.17.33.36.5.53-1.99-2.1-4.36-3.93-7.11-5.47-4.68-2.61-10.3-3.93-16.72-3.93-3.98,0-7.37.81-10.08,2.38-2.73,1.59-4.86,4.5-6.34,8.63-1.46,4.1-2.2,9.85-2.2,17.12,0,7.25.77,12.82,2.29,16.56.95,2.35,2.12,4.21,3.47,5.56,0,0,0,0-.01,0l5.57,5.57c.82.82,1.71,1.46,2.67,1.9,2.51,1.16,5.7,1.75,9.51,1.75,6.85,0,12.73-1.24,17.5-3.68,4.77-2.45,8.38-5.7,10.72-9.66,2.34-3.97,3.53-8.31,3.53-12.92,0-4.71-1.22-9.22-3.64-13.43ZM81.84,73.01c-2.19,3.65-5.54,6.65-9.96,8.9-4.43,2.26-9.96,3.4-16.43,3.4-3.62,0-6.57-.51-8.76-1.52-2.16-.99-3.9-3.22-5.18-6.61-1.3-3.44-1.95-8.68-1.95-15.58,0-6.33.56-11.46,1.68-15.27,1.1-3.77,2.87-6.54,5.25-8.25,2.39-1.71,5.63-2.58,9.63-2.58,6.02,0,11.29,1.23,15.65,3.64,4.36,2.41,7.71,5.62,9.97,9.53,2.26,3.91,3.41,8.1,3.41,12.44s-1.11,8.25-3.3,11.9Z" style="fill: #ff0025;"/>
      <path d="M62.24,52.61c-.27,0-.48.08-.64.23-.28.28-.48.78.09,1.6.41.7.76,1.56,1.04,2.54.28.98.43,1.97.43,2.94,0,1.16-.18,2.23-.53,3.21-.34.95-.89,1.74-1.59,2.31-.37.24-.56.62-.56,1.1,0,.17.02.39.12.49.15.23.43.35.82.35.41,0,.78-.16,1.09-.47.85-.83,1.5-1.91,1.93-3.21.42-1.28.63-2.65.63-4.06-.02-2.59-.64-4.76-1.81-6.43-.24-.4-.6-.6-1.04-.6Z" style="fill: #ff001e;"/>
    </g>
    <g>
      <path d="M30.83,9.98c1.98-1.22,3.81-1.83,5.5-1.84,1.69,0,3.24.48,4.65,1.48,1.41,1,2.67,2.4,3.78,4.21,1.13,1.84,1.83,3.63,2.1,5.38.27,1.75.02,3.39-.74,4.93-.76,1.53-2.11,2.89-4.05,4.09l-7.93,4.88-11.24-18.25,7.93-4.88ZM37.1,25.33l1.28-.79c.67-.41,1.18-.86,1.52-1.34.35-.48.54-1.01.58-1.58s-.06-1.2-.29-1.88c-.23-.68-.6-1.42-1.08-2.21-.65-1.06-1.32-1.88-2.01-2.45-.69-.57-1.41-.88-2.17-.91s-1.59.22-2.48.77l-1.28.79,5.92,9.61Z" style="fill: #ff0025;"/>
      <path d="M68.15,21.32l-15.2,1.51-2.12-21.32,15.2-1.51.5,5.05-8.72.87.33,3.36,8.14-.81.45,4.56-8.14.81.33,3.31,8.72-.87.5,5.05Z" style="fill: #ff0025;"/>
      <path d="M78.33,17.17c-.07.24-.09.5-.04.78.05.28.16.56.34.83.18.28.43.54.76.78.33.24.73.45,1.21.62.63.22,1.16.33,1.58.31.42-.02.76-.12,1.01-.3.25-.18.42-.41.52-.69.19-.52.07-.99-.33-1.39-.41-.4-1.04-.85-1.89-1.32l-2.29-1.29c-1.04-.59-1.91-1.27-2.61-2.04-.7-.77-1.16-1.65-1.36-2.65-.2-.99-.09-2.11.35-3.35.49-1.39,1.26-2.45,2.31-3.19,1.05-.73,2.29-1.14,3.73-1.2,1.44-.07,3,.19,4.68.79,1.9.67,3.36,1.54,4.35,2.6s1.62,2.18,1.86,3.36c.24,1.18.18,2.3-.2,3.36l-5.62-1.99c.09-.29.09-.61.01-.97-.08-.36-.28-.71-.6-1.04-.31-.34-.77-.61-1.37-.83-.79-.28-1.42-.33-1.88-.14-.46.19-.77.5-.93.93-.15.43-.04.86.35,1.26.38.41.96.82,1.74,1.24l2.45,1.31c.89.47,1.69,1.06,2.42,1.79s1.22,1.6,1.49,2.62c.27,1.03.16,2.24-.33,3.63-.46,1.31-1.2,2.37-2.19,3.17-1,.8-2.25,1.27-3.75,1.4s-3.24-.15-5.21-.85c-1.66-.59-2.97-1.27-3.95-2.04-.98-.77-1.68-1.59-2.12-2.46-.44-.87-.66-1.74-.68-2.61-.01-.87.12-1.7.39-2.48l5.83,2.06Z" style="fill: #ff0025;"/>
      <path d="M105.4,39.02c-1.62.47-3.25.44-4.88-.09-1.63-.53-3.2-1.59-4.7-3.18-1.49-1.58-2.45-3.21-2.88-4.87-.43-1.66-.37-3.3.19-4.89.56-1.6,1.57-3.08,3.02-4.45l1.53-1.44c1.48-1.39,3.03-2.32,4.67-2.79s3.27-.43,4.9.1c1.63.53,3.2,1.59,4.69,3.17,1.5,1.59,2.46,3.22,2.88,4.89.42,1.67.35,3.3-.21,4.89-.56,1.59-1.58,3.08-3.05,4.47l-1.53,1.44c-1.46,1.37-3,2.29-4.62,2.75ZM108.6,27.77c.32-.68.45-1.32.37-1.93-.08-.61-.36-1.17-.84-1.68-.48-.51-1.02-.83-1.63-.94-.61-.12-1.26-.04-1.96.25-.7.28-1.42.78-2.17,1.48l-1.62,1.53c-.75.7-1.28,1.4-1.61,2.08-.33.68-.45,1.33-.36,1.94.08.61.37,1.17.85,1.68.48.51,1.02.83,1.62.94.6.12,1.25.03,1.95-.25.7-.29,1.42-.78,2.17-1.48l1.62-1.53c.75-.7,1.28-1.39,1.61-2.07Z" style="fill: #ff0025;"/>
      <path d="M124.52,39.37l2.82,9.95c.56,1.98.58,3.72.04,5.2s-1.6,2.45-3.21,2.91c-.93.26-1.76.29-2.5.09s-1.37-.55-1.89-1.05c-.52-.5-.91-1.05-1.17-1.68l-.29.08c.17.69.19,1.45.06,2.28-.13.83-.49,1.61-1.06,2.32-.57.72-1.43,1.24-2.58,1.56-1.27.36-2.44.33-3.5-.09-1.06-.42-1.98-1.1-2.74-2.06-.76-.96-1.32-2.07-1.68-3.33l-2.94-10.36,20.62-5.84ZM109.9,50.28l.61,2.16c.27.94.69,1.55,1.26,1.84.58.29,1.18.34,1.8.17.43-.12.79-.33,1.07-.61.28-.29.46-.66.54-1.11.08-.45.03-.99-.14-1.6l-.6-2.13-4.55,1.29ZM118.19,47.93l.56,1.96c.15.53.37.94.65,1.22.28.28.59.46.93.53.34.07.68.06,1.01-.03.56-.16.97-.49,1.21-.99.24-.5.26-1.12.05-1.85l-.55-1.93-3.87,1.09Z" style="fill: #ff0025;"/>
      <path d="M105.91,80.12l2.56-15.06,21.13,3.59-2.56,15.06-5-.85,1.47-8.64-3.33-.57-1.37,8.06-4.52-.77,1.37-8.06-3.28-.56-1.47,8.64-5-.85Z" style="fill: #ff0025;"/>
      <path d="M117.03,103.01c-1.35,1.89-2.81,3.17-4.36,3.83s-3.17.81-4.86.43c-1.68-.37-3.39-1.18-5.12-2.42-1.75-1.25-3.09-2.64-4.02-4.15-.93-1.51-1.34-3.12-1.23-4.83.11-1.71.83-3.49,2.15-5.34l5.42-7.57,17.43,12.47-5.42,7.57ZM105.31,91.28l-.88,1.23c-.46.64-.75,1.25-.88,1.83-.13.58-.11,1.14.08,1.69.18.54.51,1.08.99,1.62.48.54,1.1,1.07,1.85,1.62,1.01.72,1.95,1.22,2.8,1.48.85.26,1.64.26,2.35,0,.71-.26,1.38-.82,1.99-1.67l.88-1.23-9.18-6.57Z" style="fill: #ff0025;"/>
      <path d="M91.03,99.54l11.71,17.95-5.52,3.6-11.71-17.95,5.52-3.6Z" style="fill: #ff0025;"/>
      <path d="M67.39,109.02l14.82-3.7,5.19,20.79-14.82,3.7-1.23-4.92,8.5-2.12-.82-3.27-7.94,1.98-1.11-4.45,7.94-1.98-.81-3.23-8.5,2.12-1.23-4.92Z" style="fill: #ff0025;"/>
      <path d="M64.46,109.38l-4.57,20.94-4.83-1.06-4.92-11.68-.25-.05-2.21,10.12-5.91-1.29,4.57-20.94,4.79,1.05,4.93,11.87.25.05,2.25-10.31,5.9,1.29Z" style="fill: #ff0025;"/>
      <path d="M32.69,107.49c.66-.79,1.12-1.53,1.38-2.22.26-.7.33-1.33.2-1.91-.12-.58-.44-1.08-.95-1.5-.5-.42-1.02-.64-1.56-.68-.54-.04-1.07.08-1.59.36-.52.28-1,.67-1.43,1.2l-4.78-4c.1-.12.2-.24.31-.37.1-.12.21-.25.31-.37,1.04-1.24,2.24-2.06,3.62-2.47,1.38-.41,2.81-.42,4.3-.04,1.49.39,2.93,1.16,4.31,2.32,1.62,1.36,2.72,2.83,3.3,4.4s.68,3.19.28,4.83c-.39,1.64-1.24,3.25-2.55,4.81l-1.24,1.48c-1.32,1.57-2.75,2.7-4.29,3.37-1.55.67-3.15.86-4.8.56-1.65-.3-3.29-1.13-4.91-2.48-1.04-.87-1.87-1.81-2.5-2.82-.63-1.01-1.03-2.05-1.21-3.11-.18-1.06-.13-2.12.15-3.17s.82-2.04,1.6-2.98c.1-.12.2-.24.3-.35.1-.12.2-.23.3-.35l4.78,4c-.44.52-.75,1.06-.93,1.62-.18.56-.2,1.1-.07,1.62.14.52.45.99.95,1.41.51.42,1.05.65,1.64.67s1.2-.16,1.84-.54c.64-.38,1.29-.97,1.96-1.76l1.28-1.53Z" style="fill: #ff0025;"/>
      <path d="M28.53,89.26l-18.72,10.44-3.21-5.76,18.72-10.44,3.21,5.76Z" style="fill: #ff0025;"/>
      <path d="M23.39,82.06l-22.15-3.26-1.24-8.26,20.24-9.54,1.04,6.96-3.87,1.52.87,5.79,4.15.35.96,6.44ZM6.06,74.26l7.48.63-.55-3.68-6.97,2.73.05.33Z" style="fill: #ff0025;"/>
      <path d="M10.38,44.58c-.34-.5-.52-1.07-.54-1.69-.02-.62.11-1.24.38-1.87.28-.63.66-1.14,1.14-1.54.48-.39,1.02-.63,1.63-.72.6-.09,1.24.02,1.9.31.67.3,1.17.7,1.51,1.21.33.51.51,1.07.53,1.69.02.62-.11,1.23-.38,1.86-.28.62-.65,1.13-1.12,1.53-.47.4-1,.65-1.61.74-.6.09-1.24,0-1.91-.31-.68-.3-1.19-.7-1.52-1.21Z" style="fill: #ff0025;"/>
    </g>
  </g>
</svg>